<?xml version="1.0" encoding="UTF-8" standalone="no"?>
<svg
   xmlns:dc="http://purl.org/dc/elements/1.1/"
   xmlns:cc="http://creativecommons.org/ns#"
   xmlns:rdf="http://www.w3.org/1999/02/22-rdf-syntax-ns#"
   xmlns:svg="http://www.w3.org/2000/svg"
   xmlns="http://www.w3.org/2000/svg"
   xmlns:sodipodi="http://sodipodi.sourceforge.net/DTD/sodipodi-0.dtd"
   xmlns:inkscape="http://www.inkscape.org/namespaces/inkscape"
   inkscape:version="1.0 (4035a4fb49, 2020-05-01)"
   sodipodi:docname="arrow-down-header.svg"
   id="svg14"
   version="1.1"
   height="20.344202"
   width="10.689206">
  <metadata
     id="metadata18">
    <rdf:RDF>
      <cc:Work
         rdf:about="">
        <dc:format>image/svg+xml</dc:format>
        <dc:type
           rdf:resource="http://purl.org/dc/dcmitype/StillImage" />
      </cc:Work>
    </rdf:RDF>
  </metadata>
  <sodipodi:namedview
     inkscape:current-layer="svg14"
     inkscape:window-maximized="0"
     inkscape:window-y="0"
     inkscape:window-x="0"
     inkscape:cy="8.9228905"
     inkscape:cx="2.1495915"
     inkscape:zoom="31.999289"
     showgrid="false"
     id="namedview16"
     inkscape:window-height="910"
     inkscape:window-width="1722"
     inkscape:pageshadow="2"
     inkscape:pageopacity="0"
     guidetolerance="10"
     gridtolerance="10"
     objecttolerance="10"
     borderopacity="1"
     bordercolor="#666666"
     pagecolor="#ffffff" />
  <defs
     id="defs4270">
    <filter
       id="filter4256"
       color-interpolation-filters="sRGB"
       height="1.5246145"
       width="2.147294"
       y="-0.26230726"
       x="-0.57364696">
      <feGaussianBlur
         stdDeviation="1.0327863"
         id="feGaussianBlur4258" />
    </filter>
    <filter
       id="filter4264"
       color-interpolation-filters="sRGB"
       height="1.572125"
       width="1.9709607"
       y="-0.28606248"
       x="-0.48548034">
      <feGaussianBlur
         stdDeviation="0.98671511"
         id="feGaussianBlur4266" />
    </filter>
    <filter
       id="filter4225"
       color-interpolation-filters="sRGB"
       height="1.3672302"
       width="1.8031054"
       y="-0.1836151"
       x="-0.40155271">
      <feGaussianBlur
         stdDeviation="0.99184754"
         id="feGaussianBlur4227" />
    </filter>
  </defs>
  <g
     id="layer1"
     transform="translate(-19636.417,-27316.115)">
    <path
       style="fill:#000000;stroke:none;filter:url(#filter4225)"
       id="path3101-8-2"
       d="m 19643.461,27321.128 c -2.272,0.757 -4.953,1.715 -4.638,2.788 0.316,1.074 4.275,10.163 4.275,10.163 -0.101,-3.219 1.58,-9.038 1.626,-10.931 0.06,-2.321 -1.263,-2.02 -1.263,-2.02 z" />
    <path
       sodipodi:nodetypes="ccccc"
       style="fill:#000000;stroke:none"
       id="path3101-8"
       d="m 19643.461,27318.128 c -2.272,0.757 -4.953,1.715 -4.638,2.788 0.316,1.074 4.275,10.163 4.275,10.163 -0.101,-3.219 1.58,-9.038 1.626,-10.931 0.06,-2.321 -1.263,-2.02 -1.263,-2.02 z" />
    <path
       sodipodi:nodetypes="ccccc"
       style="fill:#ffffff;stroke:none"
       id="path3101"
       d="m 19643.461,27316.128 c -2.272,0.757 -4.953,1.715 -4.638,2.788 0.316,1.074 4.275,10.163 4.275,10.163 -0.101,-3.219 1.58,-9.038 1.626,-10.931 0.06,-2.321 -1.263,-2.02 -1.263,-2.02 z" />
    <path
       style="fill:#dbdbdb;fill-opacity:1;stroke:none"
       id="path3101-8-5"
       d="m 19643.461,27317.128 c -2.272,0.757 -4.953,1.715 -4.638,2.788 0.316,1.074 4.275,10.163 4.275,10.163 -0.101,-3.219 1.58,-9.038 1.626,-10.931 0.06,-2.321 -1.263,-2.02 -1.263,-2.02 z" />
  </g>
</svg>
