<svg xmlns="http://www.w3.org/2000/svg" viewBox="0 0 10 8" width="2.8mm" height="2.3mm"><defs id="defs16"/><g transform="matrix(-1,0,0,1,10,0)" id="g10"><path id="path2" d="M 4.1,7.7 C 4.2,7.2 4.8,7.4 4.8,7.6 4.9,7.7 4.3,7.8 4.1,7.7 Z M 3.41,7.65 C 3.325,7.47 4.07,7.595 3.62,7.674 3.55,7.6793 3.47,7.6817 3.41,7.65 Z m 0.8,-0.5 c -1.3,-0.6 -2,-1.5 -1.4,-2.5 -0.2,-0.2 0.5,-0.3 0.1,-0.4 -0.1,0.3 -0.2,0.1 -0.3,0 -0.4,0 -0.4,0.4 -0.3,0.8 0,0.4 -0.1,0.7 0,1.1 -0.5,-0.2 -1.5,-0.8 -1.5,-0.9 -0.42,0.1 -0.73,-0.3 -0.51,-0.7 0.24,-0.2 0.6,0.2 0.81,0.2 0.2,-0.1 0.6,0 0.2,0.1 -0.49,0.6 0.4,0.1 0.6,-0.1 -0.1,0 -0.4,0 -0.2,-0.1 0.5,-0.6 0.5,-1.4 0.5,-2 -0.1,-1.2 1,-1.5 1.7,-1.9 0.9,0.23 1.5,0.7 2.2,-0.08 1.8,1.5 2.2,4.1 1.2,5.6 0.2,0.2 -0.5,0.7 -0.4,0.4 -0.2,0.1 -0.4,-0.1 -0.6,-0.2 -0.3,0 0.4,0.2 -0.1,0.2 -0.3,0 -0.6,0.2 -0.9,0.3 0.2,0.3 0.2,0.2 -1.1,0.2 z m 0.9,-0.6 C 4.8,6.42 5.036,6.74 5.158,6.584 Z m 0.7,-0.3 c -0.097,-0.16 -0.1,0.21 0,0 z m -2.5,-0.1 c -0.29,-0.35 -0.21,0.24 0,0 z m 1.4,-0.08 c 0.18,0.0013 0.3,-0.25 0.051,-0.12 -0.3,0 -0.7,0.3 -0.5,-0.1 -0.1,-0.3 -1,0 -0.4,0.1 0.2,0.2 0.5,0.2 0.8,0.1 z m -1.6,-0.6 c 0.2,-0.1 -0.3,-0.1 -0.2,-0.4 -0.4,-0.4 -0.2,0.6 0.2,0.4 z m 1.2,-0.2 c 0.2,0 -0.3,-0.1 -0.4,-0.1 0.1,-0.1 0.2,-0.2 0,-0.2 -0.3,-0.1 -0.5,0.1 -0.4,0.3 0.25,0.052 0.48,0.033 0.72,0.016 z m -0.4,-1 c -0.3,-0.2 -0.1,0.1 0,0.1 -0.1,0.2 -0.3,0.4 0,0.5 0.1,-0.1 0.1,-0.4 0,-0.5 z m -0.3,0.5 c -0.29,-0.039 0.14,0.23 0,0 z m -0.2,-0.4 c -0.22,-0.28 0.023,0.26 0,0 z m -1.1,2.2 c -0.3,-0.3 0.3,0 0,0 z m -2,-1.2 C 0.372,5.15 0.66,5.465 0.351,5.4 Z m 2.2,-0.5 c 0.13,-0.17 0.12,0.17 0,0 z m -1.7,-0.6 c 0.03,-0.2 0.47,-0.3 0.17,0 0,0 -0.14,0.1 -0.17,0 z m 0.27,-1.8 c -0.22,-0.2 -0.21,-0.7 0,-0.3 0.1,0.1 0.2,0.6 0,0.3 z M 0.95,1.77 c 0.17,0.14 -0.17,0.16 0,0 z m 5.1,-1.5 c 0.11,-0.31 0.26,-0.14 0,0 z" style="fill:#bbbbbb"/><path id="path4" d="M 6,6 C 5.8,6 5.5,6 5.7,5.9 5.6,5.4 5.1,5.2 4.8,4.9 4.5,4.8 4.4,4.4 4.6,4.2 4.7,3.8 4.7,3.5 4.7,3.1 4.5,2.4 4.9,2.4 5.1,2.2 5.1,2 5.9,1.8 5.9,1.5 6.05,1.63 6.22,1.74 6.37,1.86 6.386,1.76 6.3684,1.45 6.448,1.45 c 0.33,0.33 1.1,0.083 1.4,0.049 0.21,0.082 -0.21,0.22 0.024,0.33 0.2,0.1 0.2,0.3 -0.1,0.3 -0.1,0.2 0.3,0.3 0.5,0.1 0.3,-0.4 1,1.1 1.3,1.6 -0.2,0 -0.4,-0.2 -0.4,0 -0.8,0.4 -0.1,0.9 -0.3,1.4 0.2,0.5 -0.4,0.6 -0.3,0.4 0.3,-0.7 -0.8,0.4 -0.6,0.4 -0.1,0.3 -0.5,-0.1 -0.5,0.2 -0.6,0.4 -1.1,-0.2 -1.5,-0.2 z M 8.7,4.7 c -0.1,0 -0.4,-0.3 -0.3,0 0,0.7 0.4,0.1 0.3,0 z M 7.6,6.2 c 0.13,-0.091 0.052,0.15 0,0 z M 4.9,5.5 C 4.8,5.2 5.3,5.4 5.1,5.5 5,5.6 4.9,5.5 4.9,5.5 Z M 9.1,4.7 C 9.0981,4.54 9.38,4.672 9.164,4.741 9.132,4.7445 9.121,4.714 9.1,4.7 Z M 8.4,1.9 c 0.12,-0.23 0.099,0.22 0,0 z m 0.4,0 C 8.7,1.7 8.2,1.8 8.5,1.5 8.7,1.26 8.79,1.69 8.97,1.78 9.037,1.859 8.85,1.93 8.82,1.841 Z M 5.5,1.5 c 0.12,-0.14 0.13,0.15 0,0 z M 6.2,1.2 c 0.095,-0.14 0.11,0.14 0,0 z" style="fill:#aa5555"/><path id="path6" style="fill:#991111" d="M 6.7,5.9 C 6.6,5.4 5.8,5.7 5.6,5.3 5.5,5.1 5.1,4.9 5.2,4.8 5.2,4.6 5.2,4.5 5,4.5 4.9,4.4 4.7,4.3 4.8,4.2 4.883,4.148 4.93,4.153 5.03,4.225 c 0.32,0.23 -0.05,-0.37 -0.087,-0.4 -0.1,0 0,-0.2 0.1,-0.2 0.2,0 0.3,-0.2 0.2,-0.4 0,-0.2 0,-0.2 0.1,-0.2 0.2,-0.1 0.2,-0.3 0.4,-0.5 0,-0.1 0,-0.6 0.1,-0.6 0.2,0.1 0.3,0.1 0.5,0.2 0.1,0.1 0.2,0.1 0.2,-0.1 0.1,-0.2 0.7,-0.2 1,-0.1 0.2,0 0.2,0.5 0.4,0.5 0.3,0.1 0.8,-0.1 0.7,0.1 -0.6,1.2 -0.8,1.1 -0.7,2.6 0,0.2 -1,0.2 -0.7,0.3 0.2,0.1 -0.5,0.6 0,0.5 0.3,0 -0.1,0.3 -0.2,0.3 -0.1,0 -0.3,-0.1 -0.3,-0.3 z m -2,-1.4 c 0.062,0 0.16,0.19 0.12,0.23 -0.1,0.1 -0.2,-0.2 -0.1,-0.2 z M 4.9,3.3 C 4.9,3.2 4.8,2.8 4.9,2.8 5,2.8 5.1,3 5.1,3.1 5.1,3.2 5,3.5 4.9,3.3 Z"/><path id="path8" d="M 7.3,2.5 C 7.1,2.5 6.9,2.5 6.7,2.6 6.6,2.8 6.8,3.4 6.5,3.3 6.3,3.3 6.2,3 6,2.9 5.8,2.9 5.9,3.1 5.9,3.2 5.9,3.4 6.1,3.6 6,3.8 5.9,4 6,4.9 6.2,4.9 6.5,5.2 6.4,5.7 6.9,5.7 7.2,5.7 7.5,5.5 7.8,5.5 8,5.5 8.2,5.6 8.3,5.4 8.4,5.1 8.2,4.4 8.4,4.3 8.6,4.2 8.7,4.1 8.6,3.9 8.7,3.7 8.9,4 9.1,3.8 9.2,3.7 9.3,3.5 9.1,3.4 9,3.3 9,3.1 9.1,3 9.2,2.8 8.8,2.4 8.6,2.4 8.1,2.1 7.7,2.6 7.3,2.5 Z M 8.5,2.4984 c 0.1,0.2 -0.4,0.2 -0.2,0.1 0.1,-0.1 0.1,-0.1 0.2,-0.1 z m 0.052,0.071 c 0.069,0.12 -0.14,0.085 0,0 z" style="fill:#ee0000"/></g></svg>
