<svg width="520" height="390.6" version="1.1" xmlns="http://www.w3.org/2000/svg">
 <defs>
  <clipPath id="clipPath1011">
   <path d="m326.94 70.089c-63.895 0.23674-134.02 20.265-182.37 65.411-92.055 85.949-93.533 217-84.611 242.26 6.4242 18.192 19.328 10.554 28.027-0.43632 8.3617-10.563-5.1356-14.81-9.8091-31.664-6.668-110.65 41.017-202.42 157.53-237.14-37.271 44.332-36.787 78.293-17.492 145.91-15.901-64.077-7.1076-113.13 29.912-139.67 1.582 25.925 4.4307 43.697 8.0216 63.041l1.4469-67.102c28.205-6.7354 47.065-8.118 72.483-4.7846-30.321 20.58-43.569 45.251-44.022 67.637-19.904 2.6548-31.001 5.4823-40.493 13.392-13.683 11.401-13.291 16.077-10.921 15.712 20.573-4.2254 35.958-7.3193 55.329-7.1065 0.69612 1.7688 1.4503 3.5269 2.3187 5.2215-5.6952 1.1094-22.998 9.6438-19.908 12.28 9.7626 4.4959 20.34 3.242 31.553 3.3208 1.8724 1.8194 3.8589 3.5516 5.9921 5.1728 0.41908 0.35848 1.3554 0.77445 3.093 3.7232 7.9075 13.409 18.765 21.911 31.411 27.507-3.7782 0.94352-7.4683 1.9311-10.969 3.0471-70.863 22.556-114.49 130.28-92.199 212.86-1.215 16.905 0.20343 33.697 3.1911 50.665-39.167 14.194-137-1.4625-180.87-10.249 0 0 87.291 22.383 185.41 39.545l5.1225 28.717 0.4359-27.75c52.249 8.8155 109.73 15.191 153.57 14.964 55.532-0.28758 104.86-6.5912 153.57-14.964l0.43595 27.75 5.1225-28.717c98.123-17.162 185.41-39.545 185.41-39.545-36.377 7.0462-150.93 26.758-180.87 10.249 2.3666-20.029 4.7439-31.131 3.1882-50.665 22.295-82.58-21.337-190.31-92.199-212.86-3.5006-1.116-7.1913-2.1035-10.969-3.0471 12.644-5.597 23.502-14.099 31.408-27.507 1.7377-2.9456 2.6708-3.3684 3.093-3.7232 2.133-1.6199 4.1184-3.3546 5.9915-5.1728 9.4634-0.11698 23.457 1.7378 31.553-3.3208-2.6381-7.6897-12.779-9.9702-19.908-12.28 0.87193-1.6943 1.6223-3.4522 2.3187-5.2215 18.758-1.0378 38.078 3.1197 55.329 7.1065 2.373 0.36525 2.7618-4.3115-10.92-15.712-9.4934-7.9094-20.589-10.737-40.493-13.392-0.45289-22.383-13.701-47.054-44.022-67.637 24.326-1.9995 53.58-1.6984 72.484 4.7846l1.4499 67.102c3.591-19.344 6.4367-37.116 8.0219-63.041 32.957 31.428 41.437 84.174 29.91 139.67 13.803-50.449 22.749-92.265-17.493-145.91 108.95 29.399 166.18 127.46 157.53 237.14-4.6735 16.855-18.171 21.103-9.8094 31.664 8.699 10.989 21.603 18.627 28.027 0.43632 8.921-25.262 7.4427-156.32-84.611-242.26-48.352-45.147-118.47-65.161-182.37-65.411-29.284-0.10149-57.22 3.9242-81.182 11.603-23.96-7.679-51.897-11.718-81.182-11.603zm4.0589 35.969c9.0289 1.3088 11.936 3.1924 11.936 3.1924l0.20313 12.666s-29.361 16.418-37.595 51.006c-2.2244-0.20291-6.5911-0.45316-12.274-0.10134-1.5144-26.912 18.081-50.39 37.742-66.764zm154.24 0c19.659 16.375 39.252 39.855 37.742 66.764-5.6833-0.3551-10.051-0.10133-12.274 0.10134-8.2333-34.587-37.595-51.006-37.595-51.006l0.20289-12.666c2.8014-1.3932 5.4756-2.0937 11.924-3.1937zm-27.832 47.62c2.5144 20.056 3.9138 41.908 4.4959 58.933-10.45 13.025-27.736 23.286-53.782 26.3-26.047-3.0132-43.331-13.275-53.782-26.3 6e-3 -19.619 2.7529-40.711 4.4956-58.933 16.057-8.8995 35.358-15.157 49.286-18.419 15.047 4.4547 35.654 9.1401 49.286 18.419zm-114.67 14.261c-0.10186 6.9234-0.1356 13.062-0.20285 19.58-1.2744-6.1278-1.5753-12.254-1.0139-18.081 0.40212-0.49711 0.78407-1.0044 1.2099-1.5015zm130.76 0c0.42249 0.49375 0.80459 1.0011 1.2102 1.4982 0.5643 5.8268 0.27072 11.953-1.014 18.081-0.0676-6.5186-0.10186-12.657-0.20319-19.58zm-143.04 23.64c2.1366 9.6694 6.4148 17.574 11.936 24.075-0.0836 2.7847 0.11908 5.7297 0.3381 8.3642-11.036-8.252-14.791-20.074-12.274-32.44zm155.31 0c2.5183 12.367-1.2403 24.188-12.274 32.44 0.33467-2.7793 0.33157-5.81 0.33888-8.3642 5.5207-6.502 9.7991-14.406 11.935-24.075zm-185.52 4.2062c1.0918 0.034 2.383 0.0677 3.2856 0.10154 0.026 0.48703 0.0664 0.96048 0.10197 1.4508-0.68984 0.20291-1.3083 0.39233-2.1262 0.62563-0.42941-0.73722-0.86549-1.4474-1.2576-2.1744zm215.7 0c-0.39219 0.72708-0.82812 1.4373-1.2575 2.1746-0.8179-0.23674-1.4366-0.43625-2.1259-0.62567 0.0344-0.49035 0.0678-0.96722 0.10186-1.4508 0.90623-0.034 2.1937-0.0677 3.2856-0.10154zm-162.07 30.506c4.4128 3.223 9.1592 5.9443 13.965 8.3152-5.1225-1.3257-9.8601-2.7867-14.062-4.4957 0.0337-1.3291 0.0664-2.5127 0.10186-3.8195zm108.44 0c0.0346 1.3054 0.0678 2.4924 0.10228 3.8195-4.2015 1.7079-8.9394 3.1721-14.062 4.4957 4.8061-2.3741 9.5528-5.0934 13.965-8.3152zm-54.216 38.482c19.033 1.603 38.198 3.2399 55.426 8.5087 0.55763 23.447 0.96657 43.609 0.96657 43.609s2.0114-20.241 4.1558-41.915c22.087 7.9363 40.393 22.857 50.062 53.178 19.442 60.966 23.842 191.05-110.61 191.06-134.45 2e-3 -130.05-130.09-110.61-191.06 9.67-30.322 27.975-45.244 50.062-53.178 2.1432 21.675 4.1555 41.915 4.1555 41.915s0.40906-20.16 0.96687-43.609c17.228-5.2697 36.394-6.9056 55.426-8.5087zm-110.71 36.163s-28.039 80.932-9.278 146.53c10.378 36.285 33.256 57.17 55.957 69.231-24.311-4.4666-42.531-11.507-56.101-18.999-44.752-49.371-33.422-147.43 9.4228-196.77zm221.41 0c40.97 41.649 55.451 142.61 9.4212 196.77-13.57 7.4927-31.789 14.533-56.101 18.999 22.702-12.061 45.579-32.946 55.958-69.231 18.761-65.602-9.278-146.53-9.278-146.53z" enable-background="new" stroke-width="3.1261"/>
  </clipPath>
  <filter id="filter1147" x="-4.1772e-6" y="-5.6411e-6" width="1" height="1" color-interpolation-filters="sRGB">
   <feGaussianBlur stdDeviation="0.00095514743"/>
  </filter>
  <filter id="filter1151" x="-.016658" y="-.022658" width="1.0333" height="1.0453" color-interpolation-filters="sRGB">
   <feGaussianBlur stdDeviation="5.3581952"/>
  </filter>
 </defs>
 <g transform="translate(-37.332 -50.886)" filter="url(#filter1147)">
  <g transform="matrix(.71086 0 0 .71086 7.2206 21.065)" clip-path="url(#clipPath1011)" stroke-linecap="round" stroke-linejoin="round" stroke-width="2">
   <rect x="32.843" y="45.119" width="741.7" height="542.86" fill="#fff" style="paint-order:markers fill stroke"/>
   <path d="m24.333 39.391v567.55h772v-567.55zm285.29 35.846c35.29-2.0036 74.525 3.8631 98.482 11.541 23.962-7.679 51.897-11.705 81.182-11.604 63.895 0.25009 134.02 20.263 182.37 65.41 92.054 85.949 93.532 217 84.611 242.27-6.4245 18.191-19.328 10.553-28.027-0.43554-8.3611-10.562 5.1351-14.811 9.8086-31.666 8.6454-109.68-48.577-207.74-157.53-237.14 40.242 53.643 31.296 95.459 17.492 145.91 11.527-55.494 3.0466-108.24-29.91-139.67-1.5852 25.925-4.4305 43.697-8.0215 63.041l-1.4492-67.102c-18.904-6.483-48.158-6.7846-72.484-4.7852 30.321 20.582 43.569 45.253 44.021 67.637 19.903 2.655 31.001 5.4832 40.494 13.393 13.682 11.4 13.293 16.076 10.92 15.711-17.251-3.9868-36.572-8.1433-55.33-7.1055-0.69642 1.7694-1.4464 3.5264-2.3184 5.2207 7.1297 2.3096 17.27 4.5896 19.908 12.279-8.0957 5.0586-22.089 3.2053-31.553 3.3223-1.8732 1.8182-3.8592 3.5519-5.9922 5.1719-0.42221 0.35482-1.354 0.77711-3.0918 3.7227-7.9066 13.408-18.764 21.911-31.408 27.508 3.7776 0.94357 7.4681 1.9308 10.969 3.0469 70.861 22.549 114.49 130.28 92.199 212.86 1.5557 19.534-0.82287 30.637-3.1894 50.666 29.943 16.509 144.49-3.2038 180.87-10.25 0 0-87.284 22.383-185.41 39.545l-5.123 28.717-0.43555-27.75c-48.703 8.3728-98.035 14.677-153.57 14.965-43.835 0.22714-101.32-6.1493-153.57-14.965l-0.4375 27.75-5.1211-28.717c-98.117-17.162-185.41-39.545-185.41-39.545 43.871 8.7868 141.7 24.444 180.87 10.25-2.9877-16.967-4.4064-33.761-3.1914-50.666-22.295-82.58 21.336-190.31 92.199-212.86 3.5009-1.116 7.1905-2.1034 10.969-3.0469-12.647-5.596-23.503-14.099-31.41-27.508-1.7376-2.9488-2.6747-3.3642-3.0938-3.7227-2.1333-1.6212-4.1197-3.3525-5.9922-5.1719-11.213-0.0788-21.79 1.1736-31.553-3.3223-3.0898-2.636 14.213-11.17 19.908-12.279-0.8684-1.6946-1.6222-3.4519-2.3184-5.2207-19.371-0.21281-34.755 2.8801-55.328 7.1055-2.3705 0.36544-2.7634-4.3103 10.92-15.711 9.4915-7.9097 20.588-10.738 40.492-13.393 0.45329-22.386 13.701-47.057 44.021-67.637-25.418-3.3335-44.278-1.9502-72.482 4.7852l-1.4473 67.102c-3.591-19.344-6.4395-37.116-8.0215-63.041-37.019 26.542-45.813 75.591-29.912 139.67-19.295-67.616-19.778-101.58 17.492-145.91-116.51 34.726-164.2 126.49-157.53 237.14 4.6736 16.854 18.172 21.103 9.8105 31.666-8.6997 10.99-21.603 18.628-28.027 0.43554-8.9219-25.265-7.4434-156.32 84.611-242.27 48.349-45.143 115.46-62.532 165.06-65.348zm175.61 35.906c-6.4484 1.1-9.1224 1.8002-11.924 3.1934l-0.20312 12.668s29.36 16.419 37.594 51.006c2.2224-0.20267 6.5902-0.45666 12.273-0.10156 1.5099-26.91-18.081-50.39-37.74-66.766zm-154.23 2e-3c-19.66 16.375-39.255 39.851-37.74 66.762 5.6833-0.35183 10.049-0.10135 12.273 0.10156 8.2332-34.587 37.596-51.006 37.596-51.006l-0.20312-12.666s-2.907-1.8827-11.926-3.1914zm77.113 29.199c-13.928 3.2626-33.228 9.5205-49.285 18.42-1.7427 18.222-4.4901 39.313-4.4961 58.932 10.451 13.025 27.735 23.288 53.781 26.301 26.046-3.0142 43.333-13.276 53.783-26.301-0.58208-17.024-1.9816-38.876-4.4961-58.932-13.632-9.2793-34.241-13.965-49.287-18.42zm-65.389 32.68c-0.42586 0.49712-0.80882 1.0029-1.2109 1.5-0.56147 5.8268-0.26073 11.954 1.0137 18.082 0.0673-6.5189 0.10127-12.657 0.20313-19.58zm130.76 0c0.10133 6.9237 0.13552 13.062 0.20312 19.58 1.2847-6.1281 1.5799-12.253 1.0156-18.08-0.40565-0.49711-0.78845-1.0043-1.2109-1.498zm-143.03 23.643c-2.5161 12.365 1.2375 24.188 12.273 32.439-0.21902-2.6346-0.42149-5.5805-0.33789-8.3652-5.521-6.5014-9.799-14.405-11.936-24.074zm155.31 0c-2.1361 9.6688-6.4148 17.572-11.936 24.074-7e-3 2.5543-3e-3 5.586-0.33789 8.3652 11.034-8.2517 14.792-20.073 12.273-32.439zm30.189 4.2012c-1.0918 0.0338-2.3789 0.0676-3.2852 0.10157-0.0341 0.48359-0.0672 0.96082-0.10157 1.4512 0.68931 0.18942 1.3071 0.39021 2.125 0.62695 0.4294-0.7373 0.86563-1.4487 1.2578-2.1758zm-215.71 4e-3 4e-3 4e-3c0.39208 0.72703 0.82645 1.4366 1.2559 2.1738 0.81786-0.2333 1.4371-0.42209 2.127-0.625-0.0356-0.49036-0.0756-0.96414-0.10156-1.4512-0.90255-0.0338-2.1934-0.0676-3.2852-0.10156zm53.637 30.51c-0.0354 1.3052-0.0679 2.4887-0.10156 3.8164 4.2015 1.709 8.9381 3.1704 14.061 4.4961-4.804-2.3698-9.5478-5.0913-13.959-8.3125zm108.43 0c-4.4103 3.22-9.155 5.9394-13.959 8.3125 5.1221-1.3236 9.859-2.7882 14.061-4.4961-0.0344-1.3258-0.067-2.5126-0.10156-3.8164zm-54.217 38.479c-19.031 1.603-38.196 3.2403-55.424 8.5098-0.55781 23.449-0.9668 43.609-0.9668 43.609s-2.013-20.241-4.1562-41.916c-22.087 7.9341-40.392 22.857-50.062 53.18-19.441 60.966-23.843 191.06 110.61 191.05 134.45-3e-3 130.05-130.09 110.61-191.05-9.6691-30.322-27.976-45.243-50.062-53.18-2.1444 21.674-4.1562 41.916-4.1562 41.916s-0.40721-20.162-0.96484-43.609c-17.227-5.2686-36.393-6.9068-55.426-8.5098zm-110.71 36.164c-42.843 49.341-54.173 147.4-9.4219 196.77 13.57 7.4924 31.79 14.531 56.102 18.998-22.702-12.061-45.579-32.946-55.957-69.23-18.761-65.602 9.2774-146.53 9.2774-146.53zm221.41 0s28.039 80.934 9.2774 146.54c-10.379 36.285-33.255 57.17-55.957 69.23 24.312-4.4657 42.531-11.507 56.102-19 46.029-54.154 31.548-155.12-9.4219-196.77z" filter="url(#filter1151)" opacity=".601" style="paint-order:markers fill stroke"/>
   <path d="m24.332 34.305v567.55h772v-567.55zm302.59 35.783h0.01c29.282-0.11411 57.215 3.9254 81.172 11.604 23.962-7.679 51.897-11.705 81.182-11.604 63.895 0.25009 134.02 20.263 182.37 65.41 92.054 85.949 93.532 217 84.611 242.27-6.4245 18.191-19.328 10.553-28.027-0.43554-8.3611-10.562 5.1351-14.811 9.8086-31.666 8.6454-109.68-48.577-207.74-157.53-237.14 40.242 53.643 31.296 95.459 17.492 145.91 11.527-55.494 3.0466-108.24-29.91-139.67-1.5852 25.925-4.4305 43.697-8.0215 63.041l-1.4492-67.102c-18.904-6.483-48.158-6.7846-72.484-4.7852 30.321 20.582 43.569 45.253 44.021 67.637 19.903 2.655 31.001 5.4832 40.494 13.393 13.682 11.4 13.293 16.076 10.92 15.711-17.251-3.9868-36.572-8.1433-55.33-7.1055-0.69642 1.7694-1.4464 3.5264-2.3184 5.2207 7.1297 2.3096 17.27 4.5896 19.908 12.279-8.0957 5.0586-22.089 3.2053-31.553 3.3223-1.8732 1.8182-3.8592 3.5519-5.9922 5.1719-0.42221 0.35482-1.354 0.77711-3.0918 3.7227-7.9066 13.408-18.764 21.911-31.408 27.508 3.7776 0.94357 7.4681 1.9308 10.969 3.0469 70.861 22.549 114.49 130.28 92.199 212.86 1.5557 19.534-0.82287 30.637-3.1894 50.666 29.943 16.509 144.49-3.2038 180.87-10.25 0 0-87.284 22.383-185.41 39.545l-5.123 28.717-0.43555-27.75c-48.703 8.3728-98.035 14.677-153.57 14.965-43.835 0.22714-101.32-6.1493-153.57-14.965l-0.4375 27.75-5.1211-28.717c-98.117-17.162-185.41-39.545-185.41-39.545 43.871 8.7868 141.7 24.444 180.87 10.25-2.9877-16.967-4.4064-33.761-3.1914-50.666-22.295-82.58 21.336-190.31 92.199-212.86 3.5009-1.116 7.1905-2.1034 10.969-3.0469-12.647-5.596-23.503-14.099-31.41-27.508-1.7376-2.9488-2.6747-3.3642-3.0938-3.7227-2.1333-1.6212-4.1197-3.3525-5.9922-5.1719-11.213-0.0788-21.79 1.1736-31.553-3.3223-3.0898-2.636 14.213-11.17 19.908-12.279-0.8684-1.6946-1.6222-3.4519-2.3184-5.2207-19.371-0.21281-34.755 2.8801-55.328 7.1055-2.3705 0.36544-2.7634-4.3103 10.92-15.711 9.4915-7.9097 20.588-10.738 40.492-13.393 0.45329-22.386 13.701-47.057 44.021-67.637-25.418-3.3335-44.278-1.9502-72.482 4.7852l-1.4473 67.102c-3.591-19.344-6.4395-37.116-8.0215-63.041-37.019 26.542-45.813 75.591-29.912 139.67-19.295-67.616-19.778-101.58 17.492-145.91-116.51 34.726-164.2 126.49-157.53 237.14 4.6736 16.854 18.172 21.103 9.8106 31.666-8.6997 10.99-21.603 18.628-28.027 0.43554-8.9219-25.265-7.4434-156.32 84.611-242.27 48.349-45.143 118.47-65.171 182.36-65.41zm158.31 35.969c-6.4484 1.1-9.1224 1.8002-11.924 3.1934l-0.20312 12.668s29.36 16.419 37.594 51.006c2.2224-0.20267 6.5902-0.45666 12.273-0.10156 1.5099-26.91-18.081-50.39-37.74-66.766zm-154.23 2e-3c-19.66 16.375-39.255 39.851-37.74 66.762 5.6833-0.35183 10.049-0.10135 12.273 0.10156 8.2332-34.587 37.596-51.006 37.596-51.006l-0.20312-12.666s-2.907-1.8827-11.926-3.1914zm77.113 29.199c-13.928 3.2626-33.228 9.5205-49.285 18.42-1.7427 18.222-4.4901 39.313-4.4961 58.932 10.451 13.025 27.735 23.288 53.781 26.301 26.046-3.0142 43.333-13.276 53.783-26.301-0.58208-17.024-1.9816-38.876-4.4961-58.932-13.632-9.2793-34.241-13.965-49.287-18.42zm-65.389 32.68c-0.42586 0.49712-0.80882 1.0029-1.2109 1.5-0.56147 5.8268-0.26073 11.954 1.0137 18.082 0.0673-6.5189 0.10127-12.657 0.20313-19.58zm130.76 0c0.10133 6.9237 0.13552 13.062 0.20312 19.58 1.2847-6.1281 1.5799-12.253 1.0156-18.08-0.40565-0.49711-0.78845-1.0043-1.2109-1.498zm-143.03 23.643c-2.5161 12.365 1.2375 24.188 12.273 32.439-0.21902-2.6346-0.42149-5.5805-0.33789-8.3652-5.521-6.5014-9.799-14.405-11.936-24.074zm155.31 0c-2.1361 9.6688-6.4148 17.572-11.936 24.074-7e-3 2.5543-3e-3 5.586-0.33789 8.3652 11.034-8.2517 14.792-20.073 12.273-32.439zm30.189 4.2012c-1.0918 0.0338-2.3789 0.0676-3.2852 0.10157-0.0341 0.48359-0.0672 0.96082-0.10157 1.4512 0.68931 0.18942 1.3071 0.39021 2.125 0.62695 0.4294-0.7373 0.86563-1.4487 1.2578-2.1758zm-215.71 4e-3 4e-3 4e-3c0.39208 0.72703 0.82645 1.4366 1.2559 2.1738 0.81786-0.2333 1.4371-0.42209 2.127-0.625-0.0356-0.49036-0.0756-0.96414-0.10156-1.4512-0.90255-0.0338-2.1934-0.0676-3.2852-0.10156zm53.637 30.51c-0.0354 1.3052-0.0679 2.4887-0.10156 3.8164 4.2015 1.709 8.9381 3.1704 14.061 4.4961-4.804-2.3698-9.5478-5.0913-13.959-8.3125zm108.43 0c-4.4103 3.22-9.155 5.9394-13.959 8.3125 5.1221-1.3236 9.859-2.7882 14.061-4.4961-0.0344-1.3258-0.067-2.5126-0.10156-3.8164zm-54.217 38.479c-19.031 1.603-38.196 3.2403-55.424 8.5098-0.55781 23.449-0.9668 43.609-0.9668 43.609s-2.013-20.241-4.1562-41.916c-22.087 7.9341-40.392 22.857-50.062 53.18-19.441 60.966-23.843 191.06 110.61 191.05 134.45-3e-3 130.05-130.09 110.61-191.05-9.6691-30.322-27.976-45.243-50.062-53.18-2.1444 21.674-4.1562 41.916-4.1562 41.916s-0.40721-20.162-0.96484-43.609c-17.227-5.2686-36.393-6.9068-55.426-8.5098zm-110.71 36.164c-42.843 49.341-54.173 147.4-9.4219 196.77 13.57 7.4924 31.79 14.531 56.102 18.998-22.702-12.061-45.579-32.946-55.957-69.23-18.761-65.602 9.2774-146.53 9.2774-146.53zm221.41 0s28.039 80.934 9.2774 146.54c-10.379 36.285-33.255 57.17-55.957 69.23 24.312-4.4657 42.531-11.507 56.102-19 46.029-54.154 31.548-155.12-9.4219-196.77z" fill="#fff" style="mix-blend-mode:normal;paint-order:markers fill stroke"/>
  </g>
 </g>
</svg>
