<?xml version="1.0" encoding="UTF-8"?>
<svg width="423" height="504" version="1.1" viewBox="0 0 111.92 133.35" xmlns="http://www.w3.org/2000/svg" xmlns:cc="http://creativecommons.org/ns#" xmlns:dc="http://purl.org/dc/elements/1.1/" xmlns:rdf="http://www.w3.org/1999/02/22-rdf-syntax-ns#">
 <metadata>
  <rdf:RDF>
   <cc:Work rdf:about="">
    <dc:format>image/svg+xml</dc:format>
    <dc:type rdf:resource="http://purl.org/dc/dcmitype/StillImage"/>
    <dc:title/>
   </cc:Work>
  </rdf:RDF>
 </metadata>
 <defs>
  <filter id="filter4612" x="-.029064" y="-.02521" width="1.0581" height="1.0504" color-interpolation-filters="sRGB">
   <feGaussianBlur stdDeviation="1.4312789"/>
  </filter>
 </defs>
 <g transform="translate(-96.514,-30.975)" fill="#d40000">
  <path d="m89.412 24.096c-0.89371 0.87953-1.7041 2.0434-2.6076 3.2439v28.466c2.1929 2.6145 4.7296 4.4486 7.7101 5.768-1.1855 0.29606-2.3431 0.60582-3.4416 0.95601-1.5062 0.47945-2.8445 1.0856-4.2685 1.7995v9.447c2.5743-2.4113 3.6457-4.463 6.9017-5.633 0.6725 6.8014 2.3888 4.9548 2.3888 4.9548s1.9717-0.21896 5.4401-5.2106c2.9915-0.91504 1.7456-1.3527 4.9994-1.7609l-5.3609-34.887c0.0562-3.106 3.8558-4.2505 7.6424-5.3728 5.8206 0.31049-14.334-0.99417-19.404-1.771zm30.775 1.771c3.7866 1.1223 7.6581 2.0785 8.815 5.5552 0.33266 2.6535 0.77076 5.221 1.1844 7.7251 11.528-2.2678 44.672 32.422 33.826-8.1354-0.3917-0.78629-0.12958-3.4676 0.20206-6.9159h-1.8836c0.35943 3.2763 0.48052 6.5455-1.094 8.7793-2.9638-0.14581-6.7257 6.7921-8.8775-0.56172-1.6561-2.1884-2.547-7.7268-2.8076-2.3792 0.41817 9.4909-12.222-0.04055-5.4705 0l-0.93535-4.4178c2.6169-0.50928 6.8123 1.6275 4.6989-1.4206zm50.038-1.771c0.78103 1.2452 1.6687 2.8932 2.7135 4.8049 0.93934 1.7186 0.60313 2.8316-0.12712 4.6808 0.26759-0.272 5.3125-0.46289 5.6606-0.41703-1.8292-0.96379-4.239-5.1646-6.2208-9.0687zm13.21 0.28821c4.2983 2.745 8.4162 5.8616 11.731 9.4011l9.8268 0.81184c-5.1127-2.0924-3.0029-5.4846-7.7938-9.9578-4.0486 1.5576-9.1961 0.24199-13.764-0.25518zm-89.452 10.569 0.0021 0.0011c-0.032 2.1725-0.04256 4.0984-0.06356 6.1438-0.3999-1.9229-0.49451-3.8452-0.31833-5.6736 0.12619-0.15605 0.24618-0.3153 0.37982-0.47129zm-3.8494 7.4192c0.67042 3.0342 2.0126 5.5148 3.745 7.5551 5e-3 0.52635 0.0053 1.1528 0.01085 1.4108 0.0102 0.22498 0.0638 0.79557 0.0956 1.2134-3.4631-2.5894-4.6412-6.2987-3.8514-10.179zm-3.3295 88.621v7.9525c2.4506 2.265 3.3586 3.9966 5.996 5.3978-2.8339-0.52066-3.6665-1.103-5.996-1.8125v17.826c6.4402-0.0698 12.835-0.34259 19.483 0.51794l-2.3276-16.834c-11.819 3.5339-14.503-4.1793-17.156-13.048z" enable-background="new" fill="#fff" filter="url(#filter4612)"/>
 </g>
</svg>
