<?xml version="1.0" encoding="UTF-8"?>
<svg width="20" height="22" version="1.1" xmlns="http://www.w3.org/2000/svg" xmlns:cc="http://creativecommons.org/ns#" xmlns:dc="http://purl.org/dc/elements/1.1/" xmlns:rdf="http://www.w3.org/1999/02/22-rdf-syntax-ns#">
 <metadata>
  <rdf:RDF>
   <cc:Work rdf:about="">
    <dc:format>image/svg+xml</dc:format>
    <dc:type rdf:resource="http://purl.org/dc/dcmitype/StillImage"/>
    <dc:title/>
   </cc:Work>
  </rdf:RDF>
 </metadata>
 <defs>
  <filter id="filter996" x="-.06716" y="-.084912" width="1.1343" height="1.1698" color-interpolation-filters="sRGB">
   <feGaussianBlur stdDeviation="0.52131709"/>
  </filter>
 </defs>
 <g fill-rule="evenodd" stroke-width=".94531">
  <path d="m7.5548 3.6154c-1.6661 0.061836-3.4402 0.74293-4.7456 2.2383-2.2229 2.5463-2.3599 6.7169-1.9268 7.1406 0.24085 0.23568 0.69498-0.15148 0.72606-0.50781 0.020982-0.24054-1.744-2.9399 1.59-6.166 1.3103-1.2679 3.3604-2.025 5.3163-1.3887-0.66001 0.39316-1.2262 0.90364-1.2252 1.7656-0.85004-0.083114-2.2878 0.72396-1.7314 0.89453 0.56898 0.1744 1.4506 0.27283 1.6878 0.39062 0.26576 0.49676 0.58138 0.91678 1.0699 1.0762-2.8693 0.86391-4.3162 4.9415-2.6424 7.8828-1.4364 0.15221-3.1689-0.17503-4.7805-0.30469 3.1582 0.89174 6.0789 1.7081 9.1069 1.709 3.0283-8.47e-4 5.9507-0.81724 9.1086-1.709-1.6116 0.12965-3.3458 0.4569-4.7823 0.30469 1.6735-2.9413 0.22689-7.0189-2.6424-7.8828 0.48852-0.15939 0.80413-0.57941 1.0699-1.0762 0.23714-0.11779 1.1188-0.21622 1.6878-0.39062 0.55648-0.17057-0.87959-0.97765-1.7296-0.89453 9.83e-4 -0.86198-0.56697-1.3725-1.2269-1.7656 1.9559-0.63633 4.0078 0.12074 5.3181 1.3887 3.334 3.2261 1.5673 5.9255 1.5882 6.166 0.03108 0.35634 0.48696 0.7435 0.72781 0.50781 0.43304-0.42375 0.296-4.5944-1.9268-7.1406-1.9892-2.2786-5.0664-2.6651-7.1925-1.8535-0.53156-0.2029-1.1216-0.33083-1.7401-0.37305-0.23194-0.01583-0.46711-0.020552-0.70512-0.011719zm2.4449 2.3848c2 0 2 2 0 2-2 0-2-2 0-2zm3.13e-4 4c4.7738 0.17327 4.7296 6.5375 0 6.567-4.7296-0.02947-4.7738-6.3937 0-6.567z" filter="url(#filter996)" opacity=".5"/>
  <path d="m7.5551 1.6154c-1.6661 0.061836-3.4402 0.74293-4.7456 2.2383-2.2229 2.5463-2.3599 6.7169-1.9268 7.1406 0.24085 0.23568 0.69498-0.15148 0.72606-0.50781 0.020982-0.24054-1.744-2.9399 1.59-6.166 1.3103-1.2679 3.3604-2.025 5.3163-1.3887-0.66001 0.39316-1.2262 0.90364-1.2252 1.7656-0.85004-0.083114-2.2878 0.72396-1.7314 0.89453 0.56898 0.1744 1.4506 0.27283 1.6878 0.39062 0.26576 0.49676 0.58138 0.91678 1.0699 1.0762-2.8693 0.86391-4.3162 4.9415-2.6424 7.8828-1.4364 0.15221-3.1689-0.17503-4.7805-0.30469 3.1582 0.89174 6.0789 1.7081 9.1069 1.709 3.0283-8.47e-4 5.9507-0.81724 9.1086-1.709-1.6116 0.12965-3.3458 0.4569-4.7823 0.30469 1.6735-2.9413 0.22689-7.0189-2.6424-7.8828 0.48852-0.15939 0.80413-0.57941 1.0699-1.0762 0.23714-0.11779 1.1188-0.21622 1.6878-0.39062 0.55648-0.17057-0.87959-0.97765-1.7296-0.89453 9.83e-4 -0.86198-0.56697-1.3725-1.2269-1.7656 1.9559-0.63633 4.0078 0.12074 5.3181 1.3887 3.334 3.2261 1.5673 5.9255 1.5882 6.166 0.03108 0.35634 0.48696 0.7435 0.72781 0.50781 0.43304-0.42375 0.296-4.5944-1.9268-7.1406-1.9892-2.2786-5.0664-2.6651-7.1925-1.8535-0.53156-0.2029-1.1216-0.33083-1.7401-0.37305-0.23194-0.01583-0.46711-0.020552-0.70512-0.011719zm2.4449 2.3848c2 0 2 2 0 2s-2-2 0-2zm3.13e-4 4c4.7738 0.17327 4.7296 6.5375 0 6.567-4.7296-0.02947-4.7738-6.3937 0-6.567z" fill="#fff"/>
  <path d="m7.5551 2.6152c-1.6661 0.061836-3.4402 0.74293-4.7456 2.2383-2.2229 2.5463-2.3599 6.7169-1.9268 7.1406 0.24085 0.23568 0.69498-0.15148 0.72606-0.50781 0.020982-0.24054-1.744-2.9399 1.59-6.166 1.3103-1.2679 3.3604-2.025 5.3163-1.3887-0.66001 0.39316-1.2262 0.90364-1.2252 1.7656-0.85004-0.083114-2.2878 0.72396-1.7314 0.89453 0.56898 0.1744 1.4506 0.27283 1.6878 0.39062 0.26576 0.49676 0.58138 0.91678 1.0699 1.0762-2.8693 0.86391-4.3162 4.9415-2.6424 7.8828-1.4364 0.15221-3.1689-0.17503-4.7805-0.30469 3.1582 0.89174 6.0789 1.7081 9.1069 1.709 3.0283-8.47e-4 5.9507-0.81724 9.1086-1.709-1.6116 0.12965-3.3458 0.4569-4.7823 0.30469 1.6735-2.9413 0.22689-7.0189-2.6424-7.8828 0.48852-0.15939 0.80413-0.57941 1.0699-1.0762 0.23714-0.11779 1.1188-0.21622 1.6878-0.39062 0.55648-0.17057-0.87959-0.97765-1.7296-0.89453 9.83e-4 -0.86198-0.56697-1.3725-1.2269-1.7656 1.9559-0.63633 4.0078 0.12074 5.3181 1.3887 3.334 3.2261 1.5673 5.9255 1.5882 6.166 0.03108 0.35634 0.48696 0.7435 0.72781 0.50781 0.43304-0.42375 0.296-4.5944-1.9268-7.1406-1.9892-2.2786-5.0664-2.6651-7.1925-1.8535-0.53156-0.2029-1.1216-0.33083-1.7401-0.37305-0.23194-0.01583-0.46711-0.020552-0.70512-0.011719zm2.4449 2.3848c2 0 2 2 0 2s-2-2 0-2zm3.13e-4 4c4.7738 0.17327 4.7296 6.5375 0 6.567-4.7296-0.02947-4.7738-6.3937 0-6.567z" fill="#722"/>
 </g>
</svg>
