<svg width="27" height="46" version="1.1" xmlns="http://www.w3.org/2000/svg">
 <defs>
  <filter id="filter1186" x="-.0674" y="-.0954" width="1.13" height="1.19" color-interpolation-filters="sRGB">
   <feGaussianBlur stdDeviation="0.58581626"/>
  </filter>
  <filter id="filter1190" x="-.0674" y="-.0954" width="1.13" height="1.19" color-interpolation-filters="sRGB">
   <feGaussianBlur stdDeviation="0.58581626"/>
  </filter>
  <filter id="filter990" x="-.0169" y="-.0239" width="1.03" height="1.05" color-interpolation-filters="sRGB">
   <feGaussianBlur stdDeviation="0.14645413"/>
  </filter>
  <filter id="filter994" x="-.0169" y="-.0239" width="1.03" height="1.05" color-interpolation-filters="sRGB">
   <feGaussianBlur stdDeviation="0.14645413"/>
  </filter>
 </defs>
 <g fill-rule="evenodd">
  <path d="m10.6 25c-1.86 0.0618-3.85 0.743-5.31 2.24-2.49 2.55-2.64 6.72-2.16 7.14 0.27 0.236 0.778-0.151 0.812-0.508 0.0235-0.241-1.95-2.94 1.78-6.17 1.47-1.27 3.76-2.02 5.95-1.39-0.739 0.393-1.37 0.904-1.37 1.77-0.608-0.0531-1.55-0.113-1.94 0.163-0.221 0.156-0.22 0.67 0.00428 0.732 0.637 0.174 1.62 0.273 1.89 0.391 0.297 0.497 0.651 0.917 1.2 1.08-3.21 0.864-3.72 5.28-2.96 7.88-1.61 0.152-3.55-0.175-5.35-0.305 3.53 0.892 6.8 1.71 10.2 1.71 3.39-8.47e-4 6.66-0.817 10.2-1.71-1.8 0.13-3.74 0.457-5.35 0.305 0.768-2.6 0.254-7.02-2.96-7.88 0.547-0.159 0.9-0.579 1.2-1.08 0.265-0.118 1.25-0.216 1.89-0.391 0.239-0.0655 0.288-0.512 0.0328-0.679-0.409-0.268-1.38-0.267-1.97-0.216 0.0011-0.862-0.634-1.37-1.37-1.77 2.19-0.636 4.48 0.121 5.95 1.39 3.73 3.23 1.75 5.93 1.78 6.17 0.0348 0.356 0.545 0.744 0.814 0.508 0.485-0.424 0.331-4.59-2.16-7.14-2.23-2.28-5.67-2.67-8.05-1.85-0.595-0.203-1.26-0.331-1.95-0.373-0.26-0.0158-0.523-0.0206-0.789-0.0117zm2.74 1.92c2.9 0.545 2.59 3.17 0 3.11-2.59 0.0612-2.9-2.57 0-3.11zm0 3.88c5.34 0.173 5.29 7.55 0 7.58-5.29-0.0295-5.34-7.41 0-7.58z" filter="url(#filter994)"/>
  <path d="m10.6 2.91c-1.86 0.0618-3.85 0.743-5.31 2.24-2.49 2.55-2.64 6.72-2.16 7.14 0.27 0.236 0.778-0.151 0.812-0.508 0.0235-0.241-1.95-2.94 1.78-6.17 1.47-1.27 3.76-2.02 5.95-1.39-0.739 0.393-1.37 0.904-1.37 1.77-0.951-0.0831-2.56 0.724-1.94 0.895 0.637 0.174 1.62 0.273 1.89 0.391 0.297 0.497 0.651 0.917 1.2 1.08-3.21 0.864-3.72 5.28-2.96 7.88-1.61 0.152-3.55-0.175-5.35-0.305 3.53 0.892 6.8 1.71 10.2 1.71 3.39-8.47e-4 6.66-0.817 10.2-1.71-1.8 0.13-3.74 0.457-5.35 0.305 0.768-2.6 0.254-7.02-2.96-7.88 0.547-0.159 0.9-0.579 1.2-1.08 0.265-0.118 1.25-0.216 1.89-0.391 0.623-0.171-0.984-0.978-1.94-0.895 0.0011-0.862-0.634-1.37-1.37-1.77 2.19-0.636 4.48 0.121 5.95 1.39 3.73 3.23 1.75 5.93 1.78 6.17 0.0348 0.356 0.545 0.744 0.814 0.508 0.485-0.424 0.331-4.59-2.16-7.14-2.23-2.28-5.67-2.67-8.05-1.85-0.595-0.203-1.26-0.331-1.95-0.373-0.26-0.0158-0.523-0.0206-0.789-0.0117zm2.74 1.92c2.9 0.545 2.59 3.17 0 3.11-2.59 0.0612-2.9-2.57 0-3.11zm0 3.88c5.34 0.173 5.29 7.55 0 7.58-5.29-0.0295-5.34-7.41 0-7.58z" filter="url(#filter1186)" style="mix-blend-mode:normal"/>
  <path d="m10.6 1.96c-1.86 0.0618-3.85 0.743-5.31 2.24-2.49 2.55-2.64 6.72-2.16 7.14 0.27 0.236 0.778-0.151 0.812-0.508 0.0235-0.241-1.95-2.94 1.78-6.17 1.47-1.27 3.76-2.02 5.95-1.39-0.739 0.393-1.37 0.904-1.37 1.77-0.608-0.0531-1.55-0.113-1.94 0.163-0.221 0.156-0.22 0.67 0.00428 0.732 0.637 0.174 1.62 0.273 1.89 0.391 0.297 0.497 0.651 0.917 1.2 1.08-3.21 0.864-3.72 5.28-2.96 7.88-1.61 0.152-3.55-0.175-5.35-0.305 3.53 0.892 6.8 1.71 10.2 1.71 3.39-8.47e-4 6.66-0.817 10.2-1.71-1.8 0.13-3.74 0.457-5.35 0.305 0.768-2.6 0.254-7.02-2.96-7.88 0.547-0.159 0.9-0.579 1.2-1.08 0.265-0.118 1.25-0.216 1.89-0.391 0.239-0.0655 0.288-0.512 0.0328-0.679-0.409-0.268-1.38-0.267-1.97-0.216 0.0011-0.862-0.634-1.37-1.37-1.77 2.19-0.636 4.48 0.121 5.95 1.39 3.73 3.23 1.75 5.93 1.78 6.17 0.0348 0.356 0.545 0.744 0.814 0.508 0.485-0.424 0.331-4.59-2.16-7.14-2.23-2.28-5.67-2.67-8.05-1.85-0.595-0.203-1.26-0.331-1.95-0.373-0.26-0.0158-0.523-0.0206-0.789-0.0117zm2.74 1.92c2.9 0.545 2.59 3.17 0 3.11-2.59 0.0612-2.9-2.57 0-3.11zm0 3.88c5.34 0.173 5.29 7.55 0 7.58-5.29-0.0295-5.34-7.41 0-7.58z" filter="url(#filter990)"/>
 </g>
 <path d="m10.6 0.504c-1.86 0.0618-3.85 0.743-5.31 2.24-2.49 2.55-2.64 6.72-2.16 7.14 0.27 0.236 0.778-0.151 0.812-0.508 0.0235-0.241-1.77-2.77 1.96-6 1.47-1.27 3.58-2.19 5.77-1.56-0.739 0.393-1.37 0.904-1.37 1.77-0.951-0.0831-2.55 1.57-1.93 1.74 0.637 0.174 1.61-0.577 1.88-0.459 0.297 0.497 0.651 0.917 1.2 1.08-3.21 0.864-3.72 5.28-2.96 7.88-1.61 0.152-3.55-0.175-5.35-0.305v1c2.38 0.37 7.45 1.19 10.2 1.19 2.92-7.3e-4 7.23-0.357 10.2-1.19v-1c-1.8 0.13-3.74 0.457-5.35 0.305 0.768-2.6 0.254-7.02-2.96-7.88 0.547-0.159 0.9-0.579 1.2-1.08 0.265-0.118 1.25 0.621 1.89 0.447 0.623-0.171-0.984-1.82-1.94-1.73 0.0011-0.862-0.634-1.37-1.37-1.77 2.19-0.636 4.28 0.436 5.74 1.7 3.73 3.23 1.96 5.61 1.98 5.85 0.0348 0.356 0.61 1.07 0.814 0.508 0.485-0.424 0.331-4.59-2.16-7.14-2.23-2.28-5.67-2.67-8.05-1.85-0.595-0.203-1.26-0.331-1.95-0.373-0.26-0.0158-0.523-0.0206-0.789-0.0117zm2.74 1.92c2.9 0.545 2.59 3.17 0 3.11-2.59 0.0612-2.9-2.57 0-3.11zm-0.0243 4.37c5.34 0.173 5.32 7.06 0.0243 7.09-5.29-0.0295-5.37-6.91-0.0243-7.09z" fill="#fff"/>
 <g fill-rule="evenodd">
  <path d="m10.6 1c-1.86 0.0618-3.85 0.743-5.31 2.24-2.49 2.55-2.64 6.72-2.16 7.14 0.27 0.236 0.778-0.151 0.812-0.508 0.0235-0.241-1.95-2.94 1.78-6.17 1.47-1.27 3.76-2.02 5.95-1.39-0.739 0.393-1.37 0.904-1.37 1.77-0.951-0.0831-2.56 0.724-1.94 0.895 0.637 0.174 1.62 0.273 1.89 0.391 0.297 0.497 0.651 0.917 1.2 1.08-3.21 0.864-3.72 5.28-2.96 7.88-1.61 0.152-3.55-0.175-5.35-0.305 3.53 0.892 6.8 1.71 10.2 1.71 3.39-8.47e-4 6.66-0.817 10.2-1.71-1.8 0.13-3.74 0.457-5.35 0.305 0.768-2.6 0.254-7.02-2.96-7.88 0.547-0.159 0.9-0.579 1.2-1.08 0.265-0.118 1.25-0.216 1.89-0.391 0.623-0.171-0.984-0.978-1.94-0.895 0.0011-0.862-0.634-1.37-1.37-1.77 2.19-0.636 4.48 0.121 5.95 1.39 3.73 3.23 1.75 5.93 1.78 6.17 0.0348 0.356 0.545 0.744 0.814 0.508 0.485-0.424 0.331-4.59-2.16-7.14-2.23-2.28-5.67-2.67-8.05-1.85-0.595-0.203-1.26-0.331-1.95-0.373-0.26-0.0158-0.523-0.0206-0.789-0.0117zm2.74 1.92c2.9 0.545 2.59 3.17 0 3.11-2.59 0.0612-2.9-2.57 0-3.11zm0 3.88c5.34 0.173 5.29 7.55 0 7.58-5.29-0.0295-5.34-7.41 0-7.58z" fill="#ccc"/>
  <path d="m10.6 25.9c-1.86 0.0618-3.85 0.743-5.31 2.24-2.49 2.55-2.64 6.72-2.16 7.14 0.27 0.236 0.778-0.151 0.812-0.508 0.0235-0.241-1.95-2.94 1.78-6.17 1.47-1.27 3.76-2.02 5.95-1.39-0.739 0.393-1.37 0.904-1.37 1.77-0.951-0.0831-2.56 0.724-1.94 0.895 0.637 0.174 1.62 0.273 1.89 0.391 0.297 0.497 0.651 0.917 1.2 1.08-3.21 0.864-3.72 5.28-2.96 7.88-1.61 0.152-3.55-0.175-5.35-0.305 3.53 0.892 6.8 1.71 10.2 1.71 3.39-8.47e-4 6.66-0.817 10.2-1.71-1.8 0.13-3.74 0.457-5.35 0.305 0.768-2.6 0.254-7.02-2.96-7.88 0.547-0.159 0.9-0.579 1.2-1.08 0.265-0.118 1.25-0.216 1.89-0.391 0.623-0.171-0.984-0.978-1.94-0.895 0.0011-0.862-0.634-1.37-1.37-1.77 2.19-0.636 4.48 0.121 5.95 1.39 3.73 3.23 1.75 5.93 1.78 6.17 0.0348 0.356 0.545 0.744 0.814 0.508 0.485-0.424 0.331-4.59-2.16-7.14-2.23-2.28-5.67-2.67-8.05-1.85-0.595-0.203-1.26-0.331-1.95-0.373-0.26-0.0158-0.523-0.0206-0.789-0.0117zm2.74 1.92c2.9 0.545 2.59 3.17 0 3.11-2.59 0.0612-2.9-2.57 0-3.11zm0 3.88c5.34 0.173 5.29 7.55 0 7.58-5.29-0.0295-5.34-7.41 0-7.58z" filter="url(#filter1190)" style="mix-blend-mode:normal"/>
 </g>
 <path d="m10.6 24c-1.86 0.0618-3.85 0.743-5.31 2.24-2.49 2.55-2.64 6.72-2.16 7.14 0.27 0.236 0.778-0.151 0.812-0.508 0.0235-0.241-1.95-2.94 1.78-6.17 1.47-1.27 3.76-2.02 5.95-1.39-0.739 0.393-1.37 0.904-1.37 1.77-0.951-0.0831-2.56 0.724-1.94 0.895 0.637 0.174 1.62 0.273 1.89 0.391 0.297 0.497 0.651 0.917 1.2 1.08-3.21 0.864-3.72 5.28-2.96 7.88-1.61 0.152-3.55-0.175-5.35-0.305 3.53 0.892 6.8 1.71 10.2 1.71 3.39-8.47e-4 6.66-0.817 10.2-1.71-1.8 0.13-3.74 0.457-5.35 0.305 0.768-2.6 0.254-7.02-2.96-7.88 0.547-0.159 0.9-0.579 1.2-1.08 0.265-0.118 1.25-0.216 1.89-0.391 0.623-0.171-0.984-0.978-1.94-0.895 0.0011-0.862-0.634-1.37-1.37-1.77 2.19-0.636 4.48 0.121 5.95 1.39 3.73 3.23 1.75 5.93 1.78 6.17 0.0348 0.356 0.545 0.744 0.814 0.508 0.485-0.424 0.331-4.59-2.16-7.14-2.23-2.28-5.67-2.67-8.05-1.85-0.595-0.203-1.26-0.331-1.95-0.373-0.26-0.0158-0.523-0.0206-0.789-0.0117zm2.74 1.92c2.9 0.545 2.59 3.17 0 3.11-2.59 0.0612-2.9-2.57 0-3.11zm0 3.88c5.34 0.173 5.29 7.55 0 7.58-5.29-0.0295-5.34-7.41 0-7.58z" fill="#fff" fill-rule="evenodd"/>
 <path d="m10.6 23.5c-1.86 0.0618-3.85 0.743-5.31 2.24-2.49 2.55-2.64 6.72-2.16 7.14 0.27 0.236 0.778-0.151 0.812-0.508 0.0235-0.241-1.77-2.77 1.96-6 1.47-1.27 3.58-2.19 5.77-1.56-0.739 0.393-1.37 0.904-1.37 1.77-0.951-0.0831-2.55 1.57-1.93 1.74 0.637 0.174 1.61-0.577 1.88-0.459 0.297 0.497 0.651 0.917 1.2 1.08-3.21 0.864-3.72 5.28-2.96 7.88-1.61 0.152-3.55-0.175-5.35-0.305v1c2.38 0.37 7.45 1.19 10.2 1.19 2.92-7.3e-4 7.23-0.357 10.2-1.19v-1c-1.8 0.13-3.74 0.457-5.35 0.305 0.768-2.6 0.254-7.02-2.96-7.88 0.547-0.159 0.9-0.579 1.2-1.08 0.265-0.118 1.25 0.621 1.89 0.447 0.623-0.171-0.984-1.82-1.94-1.73 0.0011-0.862-0.634-1.37-1.37-1.77 2.19-0.636 4.28 0.436 5.74 1.7 3.73 3.23 1.96 5.61 1.98 5.85 0.0348 0.356 0.61 1.07 0.814 0.508 0.485-0.424 0.331-4.59-2.16-7.14-2.23-2.28-5.67-2.67-8.05-1.85-0.595-0.203-1.26-0.331-1.95-0.373-0.26-0.0158-0.523-0.0206-0.789-0.0117zm2.74 1.92c2.9 0.545 2.59 3.17 0 3.11-2.59 0.0612-2.9-2.57 0-3.11zm-0.0243 4.37c5.34 0.173 5.32 7.06 0.0243 7.09-5.29-0.0295-5.37-6.91-0.0243-7.09z" fill="#fff"/>
</svg>
