<svg width="32" height="34" version="1.1" viewBox="0 0 8.4667 8.9959" xmlns="http://www.w3.org/2000/svg">
 <defs>
  <filter id="filter1274" x="-.092087" y="-.13056" width="1.1842" height="1.2611" color-interpolation-filters="sRGB">
   <feGaussianBlur stdDeviation="0.32486558"/>
  </filter>
 </defs>
 <path d="m3.2043 0.66159c-0.65321 0.0044-0.86913 0.17418-1.487 0.66521-1.1184 0.88887-0.78423 2.6137-0.59603 3.1161 0.034734 0.092738 0.25693 0.092007 0.3534-0.15628 0.11897-0.30617-1.4012-1.189 0.36482-2.7066 0.88792-0.76304 1.611-0.29673 1.611-0.29673-0.16266 0.034237-0.40074 0.29535-0.453 0.61456-0.23476 0.00762-0.79218 0.096702-0.93413 0.39282-0.19076 0.9378 0.7098 0.17353 0.95247 0.14072 0.052643 0.11544 0.21184 0.34695 0.45027 0.42857-1.2318 0.26098-1.7528 1.8698-1.2046 3.2117l-1.4343-0.12352c-0.010056 0.023973-0.10933 0.20852-0.10064 0.39188 0.005643 0.11908 0.10891 0.2665 0.1343 0.27084 1.409 0.24123 2.1008 0.043863 3.3725 0.020991 1.0454 0.01882 2.2822 0.27562 3.4006-0.014634 0.21074-0.054693 0.097258-0.51956 0.00974-0.669l-1.4384 0.12345c0.54825-1.3419 0.027236-2.9508-1.2046-3.2117 0.23842-0.081613 0.39761-0.31313 0.45027-0.42857 0.2654 0.11874 1.3838 0.69615 0.87741-0.2073-0.14195-0.29612-0.62432-0.31868-0.85907-0.3263-0.052265-0.31921-0.29034-0.58025-0.453-0.61448 0 0 0.72313-0.46639 1.611 0.29666 1.766 1.5177 0.24584 2.4005 0.36482 2.7066 0.096478 0.24828 0.31866 0.24901 0.3534 0.15628 0.1882-0.50249 0.52242-2.2272-0.59603-3.1161-0.98858-0.78567-1.7737-0.74886-2.5161-0.52817-0.27844-0.082767-0.63725-0.13968-1.0292-0.13704zm1.0386 0.76786c0.75795 0.11133 0.68123 0.9176-7.62e-5 0.9176-0.68129 0-0.75787-0.80627 7.62e-5 -0.9176zm-0.00254 2.0074c1.7245-0.0023 1.7844 2.5612 0 2.5545-1.7844 0.00674-1.7245-2.5567 0-2.5545z" opacity=".5"/>
 <g fill-rule="evenodd" stroke-width="1.6">
  <path d="m3.2043 1.8521c-0.65321 0.0044-0.86913 0.17418-1.487 0.66521-1.1184 0.88887-0.78423 2.6137-0.59603 3.1161 0.034734 0.092738 0.25693 0.092007 0.3534-0.15628 0.11897-0.30617-1.4012-1.189 0.36482-2.7066 0.88792-0.76304 1.611-0.29673 1.611-0.29673-0.16266 0.034237-0.40074 0.29535-0.453 0.61456-0.23476 0.007616-0.71712 0.03018-0.85907 0.3263 0.10061 0.12061 0.63603 0.23644 0.87741 0.20724 0.052643 0.11544 0.21184 0.34695 0.45027 0.42857-1.2318 0.26098-1.7528 1.8698-1.2046 3.2117l-1.65-0.12352c0.86192 0.53032 2.3014 0.82263 3.6219 0.79888 1.3205 0.023773 2.7102-0.26163 3.6219-0.7988l-1.65 0.12345c0.54825-1.3419 0.027236-2.9508-1.2046-3.2117 0.23842-0.081613 0.39761-0.31313 0.45027-0.42857 0.2414 0.029204 0.7768-0.086696 0.87741-0.2073-0.14195-0.29612-0.62432-0.31868-0.85907-0.3263-0.052265-0.31921-0.29034-0.58025-0.453-0.61448 0 0 0.72313-0.46639 1.611 0.29666 1.766 1.5177 0.24584 2.4005 0.36482 2.7066 0.09648 0.24828 0.31866 0.24901 0.3534 0.15628 0.1882-0.50249 0.52242-2.2272-0.59603-3.1161-0.98858-0.78566-1.7737-0.74886-2.5161-0.52817-0.27844-0.082767-0.63725-0.13968-1.0292-0.13704zm1.0386 0.76786c0.75795 0.11133 0.68123 0.9176-7.62e-5 0.9176-0.68129 0-0.75787-0.80627 7.62e-5 -0.9176zm-0.00254 2.0074c1.7245-0.0023 1.7844 2.5612 0 2.5545-1.7844 0.00674-1.7245-2.5567 0-2.5545z" filter="url(#filter1274)"/>
  <path d="m3.2043 1.3231c-0.70897-0.27122-0.87761-0.099183-1.4951 0.39405-1.1184 0.88887-0.77619 2.8849-0.58799 3.3873 0.034734 0.092738 0.25693 0.092007 0.3534-0.15628 0.11897-0.30617-1.4012-1.189 0.36482-2.7066 0.88792-0.76304 1.611-0.29673 1.611-0.29673-0.16266 0.034237-0.40074-0.23382-0.453 0.085387-0.24461 0.0023-1.0998 0.35272-0.85907 0.85547 0.10061 0.12061 0.63603 0.23644 0.87741 0.20724 0.052643 0.11544 0.21184 0.34695 0.45027 0.42857-1.2318 0.26098-1.6044 1.6046-1.0562 2.9465l-1.5827-0.17968v0.51366c1.4292 0.41815 2.0857 0.70746 3.4062 0.68371 1.3205 0.023773 1.9812-0.26548 3.4103-0.68363l1e-7 -0.51366-1.7288 0.32001c0.54825-1.3419 0.31758-2.826-0.91425-3.0869 0.23842-0.081613 0.39761-0.31313 0.45027-0.42857 0.2414 0.029204 0.7768-0.086696 0.87741-0.2073 0.11442-0.77356-0.62432-0.84785-0.85907-0.85547-0.052265-0.31921-0.29034-0.051077-0.453-0.085307 0 0 0.72313-0.46639 1.611 0.29666 1.766 1.5177 0.24584 2.4005 0.36482 2.7066 0.096478 0.24828 0.31866 0.24901 0.3534 0.15628 0.1882-0.50249 0.60288-2.4418-0.51557-3.3307-0.98858-0.78567-1.8447-0.69711-2.5871-0.47642-0.27844-0.082767-0.64675 0.023213-1.0387 0.025853zm1.0386 0.76786c0.75795 0.11133 0.68123 0.9176-7.62e-5 0.9176-0.68129 0-0.75787-0.80627 7.62e-5 -0.9176zm-0.00254 2.0074c1.7245-0.0023 1.7844 2.5612 0 2.5545-1.7844 0.00674-1.7245-2.5567 0-2.5545z"/>
  <path d="m3.2043 0.79388c-0.65321 0.0044-0.86913 0.17418-1.487 0.66521-1.1184 0.88887-0.78423 2.6137-0.59603 3.1161 0.034734 0.092738 0.25693 0.092007 0.3534-0.15628 0.11897-0.30617-1.4012-1.189 0.36482-2.7066 0.88792-0.76304 1.611-0.29673 1.611-0.29673-0.16266 0.034237-0.40074 0.29535-0.453 0.61456-0.23476 0.00762-0.71712 0.03018-0.85907 0.3263-0.21537 0.56792 0.63234 0.24166 0.87741 0.20724 0.052643 0.11544 0.21184 0.34695 0.45027 0.42857-1.2318 0.26098-1.7528 2.0776-1.2046 3.4195l-1.4343-0.12352c-0.056572 0.087763-0.10256 0.21766 0.007381 0.24823 1.3153 0.36578 2.1648 0.42889 3.3838 0.40697 1.1467 0.020644 2.1764-0.088177 3.4103-0.41905 0.058717-0.089815 0.03256-0.14836 0.014974-0.23607l-1.4384 0.12345c0.54825-1.3419 0.027236-3.1586-1.2046-3.4195 0.23842-0.081613 0.39761-0.31313 0.45027-0.42857 0.22483 0.024321 1.1362 0.3461 0.87741-0.2073-0.14195-0.29612-0.62432-0.31868-0.85907-0.3263-0.052265-0.31921-0.29034-0.58025-0.453-0.61448 0 0 0.72313-0.46639 1.611 0.29666 1.766 1.5177 0.24584 2.4005 0.36482 2.7066 0.096478 0.24828 0.31866 0.24901 0.3534 0.15628 0.1882-0.50249 0.52242-2.2272-0.59603-3.1161-0.98858-0.78567-1.7737-0.74886-2.5161-0.52817-0.27844-0.082767-0.63725-0.13968-1.0292-0.13704zm1.0386 0.76786c0.75795 0.11133 0.68123 0.9176-7.62e-5 0.9176-0.68129 0-0.75787-0.80627 7.62e-5 -0.9176zm-0.00254 2.0074c1.7245-0.0023 1.7844 2.769 0 2.7623-1.7844 0.00674-1.7245-2.7645 0-2.7623z" fill="#fff"/>
  <path d="m3.2043 1.0585c-0.65321 0.0044-0.86913 0.17418-1.487 0.66521-1.1184 0.88887-0.78423 2.6137-0.59603 3.1161 0.034734 0.092738 0.25693 0.092007 0.3534-0.15628 0.11897-0.30617-1.4012-1.189 0.36482-2.7066 0.88792-0.76304 1.611-0.29673 1.611-0.29673-0.16266 0.034238-0.40074 0.29535-0.453 0.61456-0.23476 0.00762-0.71712 0.03018-0.85907 0.3263 0.10061 0.12061 0.63603 0.23644 0.87741 0.20724 0.052643 0.11544 0.21184 0.34695 0.45027 0.42857-1.2318 0.26098-1.7528 2.0621-1.2046 3.404l-1.4343-0.12352c1.4292 0.41815 2.0857 0.70746 3.4062 0.68371 1.3205 0.023772 1.9812-0.26548 3.4103-0.68363l-1.4384 0.12345c0.54825-1.3419 0.027236-3.1431-1.2046-3.404 0.23842-0.081613 0.39761-0.31313 0.45027-0.42857 0.2414 0.029204 0.7768-0.086696 0.87741-0.2073-0.14195-0.29612-0.62432-0.31868-0.85907-0.3263-0.052265-0.31921-0.29034-0.58025-0.453-0.61448 0 0 0.72313-0.46639 1.611 0.29666 1.766 1.5177 0.24584 2.4005 0.36482 2.7066 0.096477 0.24828 0.31866 0.24901 0.3534 0.15628 0.1882-0.50249 0.52242-2.2272-0.59603-3.1161-0.98858-0.78567-1.7737-0.74886-2.5161-0.52817-0.27844-0.082767-0.63725-0.13968-1.0292-0.13704zm1.0386 0.50328c0.75795 0.11133 0.68123 1.1822-7.61e-5 1.1822-0.68129 0-0.75787-1.0708 7.61e-5 -1.1822zm-0.00254 2.0074c1.9719 0.03669 1.9647 3.2451 1e-5 3.21-1.9431 0.01821-1.9569-3.1954-1e-5 -3.21z" fill="#ccc"/>
 </g>
</svg>
