<svg width="225" height="162.27" xmlns="http://www.w3.org/2000/svg">
 <path d="m86.533 7.6511e-4c-20.439 0.075731-42.87 6.4826-58.337 20.924-29.447 27.494-29.92 69.415-27.066 77.497 2.055 5.8194 6.1826 3.376 8.9655-0.13957 2.6748-3.3789-1.6428-4.7376-3.1378-10.129-3.2091-11.573-4.478-28.582 14.932-50.882 18.346-21.076 35.46-24.976 35.46-24.976s-9.0889 11.2-9.0889 23.105c0 11.905 3.4934 23.569 3.4934 23.569-0.06484-0.03241-5.1652-22.239 1.1747-33.837 4.4255-8.0966 6.1377-9.5492 8.3936-10.841 0.50605 8.293 1.4173 13.978 2.566 20.166l0.46283-21.465c6.3232-2.2327 10.44-2.0237 18.441-1.8713 1.987 0.04322 3.5126 0.17634 4.7454 0.34078-9.6992 6.5832-13.937 14.475-14.082 21.636-6.3671 0.84923-9.9168 1.7537-12.953 4.2839-4.3771 3.6469-4.2517 5.1429-3.4934 5.026 0.75913-0.11682 6.3479-1.5815 12.706-2.1651 1.2634-0.11684 3.1524-0.12982 4.9929-0.10818 0.22268 0.56581 0.46392 1.1282 0.74171 1.6703-0.89314 0.28884-1.8299 0.60257-2.7513 0.94333-1.9829 0.73239-4.5364 2.3439-3.6171 2.9848 1.9248 1.3422 7.1112 0.87627 9.4446 1.0515 0.20324 0.01076 0.4271 0.0083 0.6488 0.01076 0.59897 0.58199 1.2344 1.1361 1.9168 1.6547 0.13406 0.11467 0.43358 0.24774 0.98942 1.191 2.5295 4.2893 6.0025 7.0091 10.048 8.7992-1.2086 0.30182-2.389 0.61772-3.5089 0.97471-22.668 7.2153-36.625 41.676-29.493 68.092-0.15143 1.8585-0.2217 3.5795-0.1384 4.9949 0.46604 7.9367 1.1592 11.212 1.1592 11.212-2.0761 1.4256-16.885 2.2522-26.587 1.3918-7.201-0.63824-13.37-1.0537-31.271-4.6704 0 0 27.923 7.1601 59.309 12.65l1.6386 9.186 0.13944-8.8767c2.3178 0.3992 4.6461 0.80054 6.9869 1.1752 12.906 2.0699 25.743 3.6117 37.608 3.9436 1.3577 0.0434 2.736 0.0757 4.1272 0.0757 0.26712 4e-4 0.53529 7.6e-4 0.80338 0 1.3913-3e-3 2.7697-0.0325 4.1272-0.0757 11.865-0.3321 24.702-1.8737 37.608-3.9436 2.3407-0.37539 4.6691-0.77674 6.9869-1.1752l0.13946 8.8767 1.6386-9.186c31.388-5.4898 59.309-12.65 59.309-12.65-17.901 3.6168-24.069 4.0318-31.271 4.6704-9.7022 0.86004-24.511 0.0324-26.587-1.3918 0 0 0.69305-3.2754 1.1594-11.212 0.0865-1.4157 0.011-3.1366-0.13953-4.9949 7.1319-26.416-6.8255-60.879-29.493-68.092-1.1198-0.357-2.3004-0.67288-3.5088-0.97471 4.0447-1.7904 7.5178-4.5102 10.047-8.7992 0.55588-0.94224 0.85435-1.0775 0.98941-1.191 0.68231-0.51819 1.3174-1.0731 1.9166-1.6547 0.22277-0.0071 0.44545-1.15e-4 0.64874-0.01076 2.3334-0.17418 7.5198 0.28993 9.4446-1.0515 0.9192-0.6415-1.6342-2.2523-3.617-2.9848-0.92127-0.34077-1.8584-0.65448-2.7514-0.94333 0.27892-0.54198 0.51894-1.1043 0.74171-1.6703 1.8405-0.02165 3.7294-0.0077 4.993 0.10818 6.3583 0.58308 11.948 2.0484 12.706 2.1651 0.75908 0.11684 0.88347-1.3792-3.4933-5.026-3.0368-2.5301-6.5862-3.4346-12.953-4.2839-0.14487-7.1601-4.3828-15.052-14.082-21.636 1.2327-0.16444 2.7584-0.30182 4.7455-0.34078 8.0014-0.15144 12.117-0.36132 18.441 1.8713l0.46381 21.465c1.1487-6.188 2.059-11.873 2.5661-20.166 2.2558 1.2919 3.9681 2.7442 8.3931 10.841 6.34 11.599 1.2407 33.804 1.1748 33.837 0 0 3.4933-11.664 3.4933-23.569 0-11.905-9.0889-23.105-9.0889-23.105s17.113 3.9 35.46 24.976c19.41 22.298 18.141 39.307 14.932 50.882-1.495 5.3916-5.8125 6.7505-3.1379 10.129 2.7827 3.5151 6.9104 5.9586 8.9655 0.13957 2.8537-8.0808 2.3808-50.003-27.066-77.497-15.467-14.442-37.898-20.844-58.337-20.924-9.3676-0.032467-18.304 1.2553-25.969 3.7117-7.6643-2.4564-16.601-3.7485-25.969-3.7117zm1.2984 11.506c2.8882 0.41866 3.8182 1.0212 3.8182 1.0212l0.06498 4.0518s-9.3923 5.252-12.026 16.316c-0.71156-0.06491-2.1084-0.14496-3.9264-0.03241-0.48445-8.6088 5.7839-16.119 12.073-21.357zm49.34 0c6.2887 5.2382 12.556 12.749 12.073 21.357-1.818-0.11359-3.2153-0.03241-3.9262 0.03241-2.6337-11.064-12.026-16.316-12.026-16.316l0.0649-4.0518s0.92992-0.60257 3.8181-1.0212zm-24.67 8.8461c1.9072 0.49441 3.833 1.1037 5.7968 1.6857 3.8601 1.1441 7.1916 2.7849 9.9701 4.7013 0.28543 2.9845 0.65314 6.5675 0.95802 9.1397 0.15465 1.2991 0.32117 5.0152 0.48015 9.712-3.3429 4.1665-8.8722 7.4487-17.204 8.4129-8.3319-0.9639-13.861-4.2464-17.204-8.4129 0.15898-4.6969 0.3254-8.4129 0.48005-9.712 0.30497-2.5726 0.67366-6.1555 0.95802-9.1397 2.7784-1.9165 6.1101-3.5572 9.9701-4.7013 1.9637-0.58199 3.8895-1.1903 5.7962-1.6857zm-20.914 10.949c-0.03258 2.2147-0.04338 4.1782-0.06489 6.2635-0.40766-1.9602-0.50393-3.92-0.32432-5.7839 0.12863-0.15902 0.25081-0.3213 0.38704-0.48032zm41.828 0c0.13515 0.15794 0.25738 0.32022 0.38714 0.47924 0.18051 1.8639 0.0866 3.8236-0.32436 5.7839-0.0216-2.0852-0.0326-4.0487-0.065-6.2635zm-45.755 7.5622c0.68345 3.0931 2.052 5.6216 3.8181 7.7013 0.0054 0.5366 0.0054 1.1753 0.0108 1.4383 0.01035 0.22934 0.06498 0.81134 0.09735 1.2373-3.5304-2.6397-4.7314-6.4214-3.9263-10.377zm49.683 0c0.80557 3.9559-0.39677 7.7374-3.9263 10.377 0.0326-0.42514 0.0865-1.0083 0.0974-1.2373 0.011-0.26288 0.01-0.90114 0.011-1.4383 1.766-2.0799 3.1346-4.6084 3.8179-7.7013zm-59.344 1.3455c0.34925 0.01087 0.76229 0.02166 1.051 0.03247 0.0083 0.15579 0.02122 0.30724 0.03262 0.4641-0.22067 0.06491-0.41852 0.1255-0.68014 0.20013-0.13736-0.23583-0.27686-0.46301-0.40228-0.69558zm69 0c-0.12546 0.23259-0.26491 0.45978-0.40227 0.69563-0.26163-0.07573-0.45954-0.13955-0.68004-0.20014 0.011-0.15686 0.0217-0.3094 0.0326-0.4641 0.28989-0.01086 0.70174-0.02165 1.051-0.03246zm-51.844 9.7584c1.4116 1.031 2.9299 1.9015 4.4673 2.6599-1.6386-0.42407-3.1541-0.89142-4.4981-1.4381 0.0108-0.42515 0.02124-0.80378 0.03258-1.2218zm34.687 0c0.0111 0.41757 0.0217 0.79727 0.0327 1.2218-1.344 0.54632-2.8596 1.0147-4.4981 1.4381 1.5374-0.75943 3.0558-1.6293 4.4671-2.6599zm-17.343 12.31c6.0884 0.51277 12.219 1.0364 17.73 2.7218 0.17838 7.5005 0.30919 13.95 0.30919 13.95s0.64342-6.4747 1.3294-13.408c7.0653 2.5387 12.921 7.3115 16.014 17.011 6.2191 19.502 7.6268 61.115-34.764 61.86-0.20861 4e-3 -0.41082-2e-3 -0.61845 0-0.20655-2e-3 -0.40979 4e-3 -0.61851 0-42.391-0.74319-40.983-42.358-34.764-61.86 3.0933-9.6997 8.9487-14.473 16.014-17.011 0.68558 6.9336 1.3293 13.408 1.3293 13.408s0.13085-6.449 0.30928-13.95c5.511-1.6857 11.642-2.209 17.73-2.7218zm-35.413 11.568s-8.9694 25.889-2.9679 46.874c3.3197 11.607 10.638 18.288 17.9 22.146-7.7768-1.4288-13.605-3.6808-17.946-6.0775-4.4433-4.2197-7.6708-9.9869-8.3778-17.893-2.8047-31.362 11.392-45.05 11.392-45.05zm70.826 0s14.197 13.688 11.392 45.05c-0.70713 7.9061-3.9348 13.673-8.3783 17.893-4.341 2.3968-10.169 4.649-17.946 6.0775 7.2622-3.858 14.58-10.539 17.9-22.146 6.0015-20.985-2.9679-46.874-2.9679-46.874z" enable-background="new" fill="#fff" stroke-width=".49342"/>
</svg>
