<?xml version="1.0" encoding="UTF-8"?>
<svg width="27" height="46" version="1.1" xmlns="http://www.w3.org/2000/svg" xmlns:cc="http://creativecommons.org/ns#" xmlns:dc="http://purl.org/dc/elements/1.1/" xmlns:rdf="http://www.w3.org/1999/02/22-rdf-syntax-ns#">
 <metadata>
  <rdf:RDF>
   <cc:Work rdf:about="">
    <dc:format>image/svg+xml</dc:format>
    <dc:type rdf:resource="http://purl.org/dc/dcmitype/StillImage"/>
    <dc:title/>
   </cc:Work>
  </rdf:RDF>
 </metadata>
 <defs>
  <filter id="filter1186" x="-.040963" y="-.057957" width="1.0819" height="1.1159" color-interpolation-filters="sRGB">
   <feGaussianBlur stdDeviation="0.35582672"/>
  </filter>
  <filter id="filter1190" x="-.040963" y="-.057957" width="1.0819" height="1.1159" color-interpolation-filters="sRGB">
   <feGaussianBlur stdDeviation="0.35582672"/>
  </filter>
 </defs>
 <path d="m10.635 2.6754c-1.8644 0.061836-3.8497 0.74293-5.3105 2.2383-2.4875 2.5463-2.6408 6.7169-2.1563 7.1406 0.26952 0.23568 0.77772-0.15148 0.8125-0.50781 0.02348-0.24054-1.9516-2.9399 1.7793-6.166 1.4663-1.2679 3.7604-2.025 5.9492-1.3887-0.73858 0.39316-1.3722 0.90364-1.3711 1.7656-0.95124-0.083114-2.5602 0.72396-1.9375 0.89453 0.63672 0.1744 1.6233 0.27283 1.8887 0.39063 0.2974 0.49676 0.65059 0.91678 1.1973 1.0762-3.2109 0.86391-3.7248 5.2778-2.957 7.8828-1.6074 0.15221-3.5461-0.17503-5.3496-0.30469 3.5342 0.89174 6.8026 1.7081 10.191 1.709 3.3888-8.47e-4 6.6591-0.81724 10.193-1.709-1.8035 0.12965-3.7441 0.4569-5.3516 0.30469 0.76772-2.605 0.2539-7.0189-2.957-7.8828 0.54668-0.15939 0.89986-0.57941 1.1973-1.0762 0.26537-0.1178 1.252-0.21622 1.8887-0.39063 0.62273-0.17057-0.9843-0.97765-1.9355-0.89453 0.0011-0.86198-0.63447-1.3725-1.373-1.7656 2.1888-0.63633 4.4849 0.12074 5.9512 1.3887 3.7309 3.2261 1.7539 5.9255 1.7773 6.166 0.03478 0.35634 0.54493 0.7435 0.81445 0.50781 0.48459-0.42375 0.33124-4.5944-2.1562-7.1406-2.226-2.2786-5.6695-2.6651-8.0488-1.8535-0.59484-0.2029-1.2551-0.33083-1.9473-0.37305-0.25955-0.01583-0.52272-0.020552-0.78906-0.011719zm2.7363 1.9219c2.9027 0.54491 2.5889 3.1725 0 3.1113-2.5889 0.06117-2.9027-2.5664 0-3.1113zm0 3.875c5.3421 0.17327 5.2927 7.5545 0 7.584-5.2927-0.02947-5.3421-7.4107 0-7.584z" fill-rule="evenodd" filter="url(#filter1186)" style="mix-blend-mode:normal"/>
 <path d="m10.635 1.5044c-1.8644 0.061836-3.8497 0.74293-5.3105 2.2383-2.4875 2.5463-2.6408 6.7169-2.1563 7.1406 0.26952 0.23568 0.77772-0.15148 0.8125-0.50781 0.02348-0.24054-1.9516-2.9399 1.7793-6.166 1.4663-1.2679 3.7604-2.025 5.9492-1.3887-0.73858 0.39316-1.3722 0.90364-1.3711 1.7656-0.95124-0.083114-2.5602 0.72396-1.9375 0.89453 0.63672 0.1744 1.6233 0.27283 1.8887 0.39062 0.2974 0.49676 0.65059 0.91678 1.1973 1.0762-3.2109 0.86391-3.7248 5.2778-2.957 7.8828-1.6074 0.15221-3.5461-0.17503-5.3496-0.30469 3.5342 0.89174 6.8026 1.7081 10.191 1.709 3.3888-8.47e-4 6.6591-0.81724 10.193-1.709-1.8035 0.12965-3.7441 0.4569-5.3516 0.30469 0.76772-2.605 0.2539-7.0189-2.957-7.8828 0.54668-0.15939 0.89986-0.57941 1.1973-1.0762 0.26537-0.11779 1.252-0.21622 1.8887-0.39062 0.62273-0.17057-0.9843-0.97765-1.9355-0.89453 0.0011-0.86198-0.63447-1.3725-1.373-1.7656 2.1888-0.63633 4.4849 0.12074 5.9512 1.3887 3.7309 3.2261 1.7539 5.9255 1.7773 6.166 0.03478 0.35634 0.54493 0.7435 0.81445 0.50781 0.48459-0.42375 0.33124-4.5944-2.1562-7.1406-2.226-2.2786-5.6695-2.6651-8.0488-1.8535-0.59484-0.2029-1.2551-0.33083-1.9473-0.37305-0.25955-0.01583-0.52272-0.020552-0.78906-0.011719zm2.7363 1.9219c2.9027 0.54491 2.5889 3.1725 0 3.1113-2.5889 0.061169-2.9027-2.5664 0-3.1113zm0 3.875c5.3421 0.17327 5.2927 7.5545 0 7.584-5.2927-0.02947-5.3421-7.4107 0-7.584z" fill-rule="evenodd"/>
 <path d="m10.635 0.004374c-1.8644 0.06184-3.8497 0.74293-5.3105 2.2383-2.4875 2.5463-2.6408 6.7169-2.1562 7.1406 0.26952 0.23568 0.77772-0.15148 0.8125-0.50781 0.02348-0.24054-1.9516-2.9399 1.7793-6.166 1.4663-1.2679 3.7604-2.025 5.9492-1.3887-0.73858 0.39316-1.3722 0.90364-1.3711 1.7656-0.95124-0.083114-2.5602 0.72396-1.9375 0.89453 0.63672 0.1744 1.6233 0.27283 1.8887 0.39062 0.2974 0.49676 0.65059 0.91678 1.1973 1.0762-3.2109 0.86391-3.7248 5.2778-2.957 7.8828-1.6074 0.15221-3.5461-0.17503-5.3496-0.30469 3.5342 0.89174 6.8026 1.7081 10.191 1.709 3.3888-8.47e-4 6.6591-0.81724 10.193-1.709-1.8035 0.12965-3.7441 0.4569-5.3516 0.30469 0.76772-2.605 0.2539-7.0189-2.957-7.8828 0.54668-0.15939 0.89986-0.57941 1.1973-1.0762 0.26537-0.11779 1.252-0.21622 1.8887-0.39062 0.62273-0.17057-0.9843-0.97765-1.9355-0.89453 0.0011-0.86198-0.63447-1.3725-1.373-1.7656 2.1888-0.63633 4.4849 0.12074 5.9512 1.3887 3.7309 3.2261 1.7539 5.9255 1.7773 6.166 0.03478 0.35634 0.54493 0.7435 0.81445 0.50781 0.48459-0.42375 0.33124-4.5944-2.1562-7.1406-2.226-2.2786-5.6695-2.6651-8.0488-1.8535-0.59484-0.2029-1.2551-0.33083-1.9473-0.37305-0.25955-0.01583-0.52272-0.02055-0.78906-0.01172zm2.7363 1.9219c2.9027 0.54491 2.5889 3.1725 0 3.1113-2.5889 0.061169-2.9027-2.5664 0-3.1113zm0 3.875c5.3421 0.17327 5.2927 7.5545 0 7.584-5.2927-0.02947-5.3421-7.4107 0-7.584z" fill="#fff"/>
 <g fill-rule="evenodd">
  <path d="m10.635 1.0044c-1.8644 0.061836-3.8497 0.74293-5.3105 2.2383-2.4875 2.5463-2.6408 6.7169-2.1562 7.1406 0.26952 0.23568 0.77772-0.15148 0.8125-0.50781 0.02348-0.24054-1.9516-2.9399 1.7793-6.166 1.4663-1.2679 3.7604-2.025 5.9492-1.3887-0.73858 0.39316-1.3722 0.90364-1.3711 1.7656-0.95124-0.083114-2.5602 0.72396-1.9375 0.89453 0.63672 0.1744 1.6233 0.27283 1.8887 0.39062 0.2974 0.49676 0.65059 0.91678 1.1973 1.0762-3.2109 0.86391-3.7248 5.2778-2.957 7.8828-1.6074 0.15221-3.5461-0.17503-5.3496-0.30469 3.5342 0.89174 6.8026 1.7081 10.191 1.709 3.3888-8.47e-4 6.6591-0.81724 10.193-1.709-1.8035 0.12965-3.7441 0.4569-5.3516 0.30469 0.76772-2.605 0.2539-7.0189-2.957-7.8828 0.54668-0.15939 0.89986-0.57941 1.1973-1.0762 0.26537-0.11779 1.252-0.21622 1.8887-0.39062 0.62273-0.17057-0.9843-0.97765-1.9355-0.89453 0.0011-0.86198-0.63447-1.3725-1.373-1.7656 2.1888-0.63633 4.4849 0.12074 5.9512 1.3887 3.7309 3.2261 1.7539 5.9255 1.7773 6.166 0.03478 0.35634 0.54493 0.7435 0.81445 0.50781 0.48459-0.42375 0.33124-4.5944-2.1562-7.1406-2.226-2.2786-5.6695-2.6651-8.0488-1.8535-0.59484-0.2029-1.2551-0.33083-1.9473-0.37305-0.25955-0.01583-0.52272-0.020552-0.78906-0.011719zm2.7363 1.9219c2.9027 0.54491 2.5889 3.1725 0 3.1113-2.5889 0.061169-2.9027-2.5664 0-3.1113zm0 3.875c5.3421 0.17327 5.2927 7.5545 0 7.584-5.2927-0.02947-5.3421-7.4107 0-7.584z" fill="#ccc"/>
  <path d="m10.635 25.675c-1.8644 0.06184-3.8497 0.74293-5.3105 2.2383-2.4875 2.5463-2.6408 6.7169-2.1563 7.1406 0.26952 0.23568 0.77772-0.15148 0.8125-0.50781 0.02348-0.24054-1.9516-2.9399 1.7793-6.166 1.4663-1.2679 3.7604-2.025 5.9492-1.3887-0.73858 0.39316-1.3722 0.90364-1.3711 1.7656-0.95124-0.08311-2.5602 0.72396-1.9375 0.89453 0.63672 0.1744 1.6233 0.27283 1.8887 0.39062 0.2974 0.49676 0.65059 0.91678 1.1973 1.0762-3.2109 0.86391-3.7248 5.2778-2.957 7.8828-1.6074 0.15221-3.5461-0.17503-5.3496-0.30469 3.5342 0.89174 6.8026 1.7081 10.191 1.709 3.3888-8.47e-4 6.6591-0.81724 10.193-1.709-1.8035 0.12965-3.7441 0.4569-5.3516 0.30469 0.76772-2.605 0.2539-7.0189-2.957-7.8828 0.54668-0.15939 0.89986-0.57941 1.1973-1.0762 0.26537-0.1178 1.252-0.21622 1.8887-0.39062 0.62273-0.17057-0.9843-0.97765-1.9355-0.89453 0.0011-0.86198-0.63447-1.3725-1.373-1.7656 2.1888-0.63632 4.4849 0.12074 5.9512 1.3887 3.7309 3.2261 1.7539 5.9255 1.7773 6.166 0.03478 0.35634 0.54493 0.7435 0.81445 0.50781 0.48459-0.42375 0.33124-4.5944-2.1562-7.1406-2.226-2.2786-5.6695-2.6651-8.0488-1.8535-0.59484-0.2029-1.2551-0.33083-1.9473-0.37305-0.25955-0.01583-0.52272-0.02055-0.78906-0.01172zm2.7363 1.9219c2.9027 0.54491 2.5889 3.1725 0 3.1113-2.5889 0.06117-2.9027-2.5664 0-3.1113zm0 3.875c5.3421 0.17327 5.2927 7.5545 0 7.584-5.2927-0.02947-5.3421-7.4107 0-7.584z" filter="url(#filter1190)" style="mix-blend-mode:normal"/>
  <path d="m10.635 24.504c-1.8644 0.06184-3.8497 0.74293-5.3105 2.2383-2.4875 2.5463-2.6408 6.7169-2.1563 7.1406 0.26952 0.23568 0.77772-0.15148 0.8125-0.50781 0.02348-0.24054-1.9516-2.9399 1.7793-6.166 1.4663-1.2679 3.7604-2.025 5.9492-1.3887-0.73858 0.39316-1.3722 0.90364-1.3711 1.7656-0.95124-0.08311-2.5602 0.72396-1.9375 0.89453 0.63672 0.1744 1.6233 0.27283 1.8887 0.39062 0.2974 0.49676 0.65059 0.91678 1.1973 1.0762-3.2109 0.86391-3.7248 5.2778-2.957 7.8828-1.6074 0.15221-3.5461-0.17503-5.3496-0.30469 3.5342 0.89174 6.8026 1.7081 10.191 1.709 3.3888-8.47e-4 6.6591-0.81724 10.193-1.709-1.8035 0.12965-3.7441 0.4569-5.3516 0.30469 0.76772-2.605 0.2539-7.0189-2.957-7.8828 0.54668-0.15939 0.89986-0.57941 1.1973-1.0762 0.26537-0.11779 1.252-0.21622 1.8887-0.39062 0.62273-0.17057-0.9843-0.97765-1.9355-0.89453 0.0011-0.86198-0.63447-1.3725-1.373-1.7656 2.1888-0.63632 4.4849 0.12074 5.9512 1.3887 3.7309 3.2261 1.7539 5.9255 1.7773 6.166 0.03478 0.35634 0.54493 0.7435 0.81445 0.50781 0.48459-0.42375 0.33124-4.5944-2.1562-7.1406-2.226-2.2786-5.6695-2.6651-8.0488-1.8535-0.59484-0.2029-1.2551-0.33083-1.9473-0.37305-0.25955-0.01583-0.52272-0.02055-0.78906-0.01172zm2.7363 1.9219c2.9027 0.54491 2.5889 3.1725 0 3.1113-2.5889 0.06117-2.9027-2.5664 0-3.1113zm0 3.875c5.3421 0.17327 5.2927 7.5545 0 7.584-5.2927-0.02947-5.3421-7.4107 0-7.584z"/>
 </g>
 <path d="m10.635 23.004c-1.8644 0.06184-3.8497 0.74293-5.3105 2.2383-2.4875 2.5463-2.6408 6.7169-2.1562 7.1406 0.26952 0.23568 0.77772-0.15148 0.8125-0.50781 0.02348-0.24054-1.9516-2.9399 1.7793-6.166 1.4663-1.2679 3.7604-2.025 5.9492-1.3887-0.73858 0.39316-1.3722 0.90364-1.3711 1.7656-0.95124-0.08311-2.5602 0.72396-1.9375 0.89453 0.63672 0.1744 1.6233 0.27283 1.8887 0.39062 0.2974 0.49676 0.65059 0.91678 1.1973 1.0762-3.2109 0.86391-3.7248 5.2778-2.957 7.8828-1.6074 0.15221-3.5461-0.17503-5.3496-0.30469 3.5342 0.89174 6.8026 1.7081 10.191 1.709 3.3888-8.47e-4 6.6591-0.81724 10.193-1.709-1.8035 0.12965-3.7441 0.4569-5.3516 0.30469 0.76772-2.605 0.2539-7.0189-2.957-7.8828 0.54668-0.15939 0.89986-0.57941 1.1973-1.0762 0.26537-0.1178 1.252-0.21622 1.8887-0.39062 0.62273-0.17057-0.9843-0.97765-1.9355-0.89453 0.0011-0.86198-0.63447-1.3725-1.373-1.7656 2.1888-0.63632 4.4849 0.12074 5.9512 1.3887 3.7309 3.2261 1.7539 5.9255 1.7773 6.166 0.03478 0.35634 0.54493 0.7435 0.81445 0.50781 0.48459-0.42375 0.33124-4.5944-2.1562-7.1406-2.226-2.2786-5.6695-2.6651-8.0488-1.8535-0.59484-0.2029-1.2551-0.33083-1.9473-0.37305-0.25955-0.01583-0.52272-0.02055-0.78906-0.01172zm2.7363 1.9219c2.9027 0.54491 2.5889 3.1725 0 3.1113-2.5889 0.06117-2.9027-2.5664 0-3.1113zm0 3.875c5.3421 0.17327 5.2927 7.5545 0 7.584-5.2927-0.02947-5.3421-7.4107 0-7.584z" fill="#fff"/>
 <path d="m10.635 24.004c-1.8644 0.06184-3.8497 0.74293-5.3105 2.2383-2.4875 2.5463-2.6408 6.7169-2.1562 7.1406 0.26952 0.23568 0.77772-0.15148 0.8125-0.50781 0.02348-0.24054-1.9516-2.9399 1.7793-6.166 1.4663-1.2679 3.7604-2.025 5.9492-1.3887-0.73858 0.39316-1.3722 0.90364-1.3711 1.7656-0.95124-0.08311-2.5602 0.72396-1.9375 0.89453 0.63672 0.1744 1.6233 0.27283 1.8887 0.39062 0.2974 0.49676 0.65059 0.91678 1.1973 1.0762-3.2109 0.86391-3.7248 5.2778-2.957 7.8828-1.6074 0.15221-3.5461-0.17503-5.3496-0.30469 3.5342 0.89174 6.8026 1.7081 10.191 1.709 3.3888-8.47e-4 6.6591-0.81724 10.193-1.709-1.8035 0.12965-3.7441 0.4569-5.3516 0.30469 0.76772-2.605 0.2539-7.0189-2.957-7.8828 0.54668-0.15939 0.89986-0.57941 1.1973-1.0762 0.26537-0.1178 1.252-0.21622 1.8887-0.39062 0.62273-0.17057-0.9843-0.97765-1.9355-0.89453 0.0011-0.86198-0.63447-1.3725-1.373-1.7656 2.1888-0.63632 4.4849 0.12074 5.9512 1.3887 3.7309 3.2261 1.7539 5.9255 1.7773 6.166 0.03478 0.35634 0.54493 0.7435 0.81445 0.50781 0.48459-0.42375 0.33124-4.5944-2.1562-7.1406-2.226-2.2786-5.6695-2.6651-8.0488-1.8535-0.59484-0.2029-1.2551-0.33083-1.9473-0.37305-0.25955-0.01583-0.52272-0.02055-0.78906-0.01172zm2.7363 1.9219c2.9027 0.54491 2.5889 3.1725 0 3.1113-2.5889 0.06117-2.9027-2.5664 0-3.1113zm0 3.875c5.3421 0.17327 5.2927 7.5545 0 7.584-5.2927-0.02947-5.3421-7.4107 0-7.584z" fill="#fff" fill-rule="evenodd"/>
</svg>
