<?xml version="1.0" encoding="UTF-8"?>
<svg width="755" height="605" version="1.1" viewBox="0 0 199.76 160.07" xmlns="http://www.w3.org/2000/svg" xmlns:cc="http://creativecommons.org/ns#" xmlns:dc="http://purl.org/dc/elements/1.1/" xmlns:rdf="http://www.w3.org/1999/02/22-rdf-syntax-ns#">
 <metadata>
  <rdf:RDF>
   <cc:Work rdf:about="">
    <dc:format>image/svg+xml</dc:format>
    <dc:type rdf:resource="http://purl.org/dc/dcmitype/StillImage"/>
    <dc:title/>
   </cc:Work>
  </rdf:RDF>
 </metadata>
 <defs>
  <clipPath id="clipPath2892">
   <path d="m-7.5773 49.739c-20.056 0.07453-42.067 6.359-57.245 20.525-28.896 26.97-29.36 68.092-26.56 76.019 2.0166 5.7085 6.0673 3.3117 8.7979-0.13695 2.6248-3.3146-1.6123-4.6477-3.0794-9.9369-3.1491-11.353-4.3942-28.037 14.653-49.911 18.003-20.675 34.796-24.5 34.796-24.5s-8.9188 10.986-8.9188 22.665c0 11.678 3.4282 23.12 3.4282 23.12-0.06365-0.0318-5.0684-21.815 1.1529-33.193 4.3427-7.9425 6.0224-9.3672 8.2362-10.634 0.49659 8.135 1.3909 13.712 2.5182 19.782l0.45423-21.057c6.205-2.1902 10.244-1.9851 18.096-1.8355 1.9499 0.04235 3.4468 0.17304 4.6566 0.33435-9.5178 6.4578-13.676 14.2-13.818 21.224-6.2482 0.83305-9.7315 1.7199-12.711 4.2018-4.2952 3.5774-4.1723 5.045-3.4282 4.9304 0.74493-0.11459 6.2294-1.5514 12.468-2.1239 1.2398-0.11461 3.0933-0.12716 4.8994-0.10594 0.21852 0.55502 0.45552 1.1069 0.72812 1.6387-0.87644 0.28333-1.796 0.59072-2.7001 0.92501-1.9458 0.71843-4.4512 2.2992-3.5491 2.928 1.8888 1.3166 6.9781 0.85956 9.2676 1.0315 0.19945 0.01048 0.4191 0.0088 0.63665 0.01085 0.58777 0.57093 1.2113 1.1144 1.881 1.6232 0.13157 0.11249 0.42555 0.24314 0.971 1.1684 2.4822 4.2076 5.8902 6.8752 9.8593 8.6315-1.1859 0.29606-2.3442 0.60582-3.4432 0.95601-22.244 7.078-35.94 40.883-28.941 66.796-0.1486 1.8232-0.21764 3.5112-0.13591 4.9 0.45733 7.7856 1.1374 10.998 1.1374 10.998-2.0373 1.3985-16.569 2.2094-26.09 1.3653-7.0665-0.62611-13.12-1.0333-30.686-4.5811 0 0 27.401 7.0236 58.202 12.409l1.6082 9.0113 0.13694-8.7075c2.2744 0.39158 4.5589 0.78539 6.8559 1.1529 7.9131 1.2686 15.799 2.3349 23.443 3.036v-16.379c-23.711-10.273-21.907-41.339-16.814-57.302 3.0354-9.5152 8.7817-14.197 15.715-16.687 0.5672 5.7344 0.94482 9.5315 1.0997 11.089v-49.714h3.2871c2.5484-1.6376 5.5296-3.041 8.9328-4.0494 1.9266-0.57083 3.816-1.1678 5.687-1.6536h0.0011c1.8712 0.48493 3.7603 1.0828 5.687 1.6536 3.4031 1.0083 6.3839 2.4118 8.9323 4.0494h14.929c-3.6934-6.3496-9.1478-9.4036-9.1478-9.4036l0.0641-3.9744s0.91211-0.59081 3.7445-1.0015c4.5074 3.7533 9.0001 8.6967 10.911 14.379h1.8164c-1.9233-4.9823-5.9262-10.005-12.442-14.426 1.2097-0.16131 2.7071-0.29614 4.6571-0.33435 7.8516-0.14856 11.891-0.35457 18.096 1.8355l0.27905 12.925h1.5301c0.4895-3.4487 0.88873-7.154 1.1638-11.65 2.2136 1.2673 3.8942 2.692 8.2367 10.634 0.18032 0.32978 0.35026 0.66948 0.51212 1.016h2.481c-2.563-7.7271-7.3313-13.607-7.3313-13.607s10.493 2.3985 23.779 13.607h9.8562c-1.572-1.7603-3.2456-3.4781-5.0281-5.1418-15.178-14.167-37.189-20.447-57.246-20.525-9.1923-0.03187-17.962 1.231-25.483 3.6406-7.5209-2.4095-16.29-3.6766-25.482-3.6406h-5.292e-4zm1.2764 11.287c2.8328 0.41068 3.7455 1.0015 3.7455 1.0015l0.06356 3.9744s-9.2166 5.152-11.801 16.005c-0.69825-0.06363-2.069-0.14196-3.853-0.03153-0.47535-8.4439 5.6744-15.811 11.845-20.949zm3.6825 19.417 0.0021 5.29e-4c-0.03198 2.1725-0.04249 4.0989-0.06356 6.1443-0.40004-1.9229-0.49458-3.8452-0.31833-5.6736 0.12624-0.156 0.24613-0.31529 0.37982-0.47129zm-3.8504 7.4192c0.67066 3.0342 2.0135 5.5143 3.7465 7.5546 0.0052 0.52637 0.0044 1.1528 0.010851 1.4108 0.01048 0.22498 0.06332 0.7961 0.09509 1.2139-3.4644-2.5894-4.6425-6.2987-3.8525-10.179zm-9.4806 1.3198c0.34272 0.01069 0.74815 0.02093 1.0315 0.03152 0.0084 0.15282 0.02093 0.3014 0.03204 0.45527-0.21654 0.06363-0.41094 0.12315-0.66766 0.19637-0.1348-0.23134-0.27173-0.45397-0.39481-0.68213zm-0.89504 32.995s-8.8019 25.397-2.9125 45.982c3.2576 11.386 10.439 17.94 17.565 21.724-7.6313-1.4015-13.351-3.6107-17.611-5.9619-4.3602-4.1393-7.5274-9.7967-8.2212-17.552-2.7523-30.765 11.179-44.192 11.179-44.192z" enable-background="new" fill="#fff"/>
  </clipPath>
  <filter id="filter2860" x="-.015063" y="-.020262" width="1.0301" height="1.0405" color-interpolation-filters="sRGB">
   <feGaussianBlur stdDeviation="1.4474709"/>
  </filter>
 </defs>
 <g transform="matrix(-1 0 0 1 202.23 -18.734)">
  <g transform="translate(94.983,-31.006)" clip-path="url(#clipPath2892)">
   <path transform="scale(.26458)" d="m-28.639 187.99c-75.802 0.2817-158.99 24.034-216.36 77.576-109.21 101.94-110.97 257.36-100.38 287.32 7.6217 21.576 22.931 12.517 33.252-0.51758 9.9206-12.527-6.0939-17.566-11.639-37.557-11.902-42.908-16.608-105.97 55.381-188.64 68.044-78.14 131.51-92.6 131.51-92.6s-33.709 41.523-33.709 85.662 12.957 87.381 12.957 87.381c-0.24057-0.12019-19.156-82.449 4.3574-125.45 16.413-30.019 22.762-35.404 31.129-40.193 1.8769 30.746 5.257 51.825 9.5176 74.768l1.7168-79.584c23.452-8.278 38.719-7.5026 68.395-6.9375 7.3695 0.16006 13.027 0.65399 17.6 1.2637-35.973 24.407-51.69 53.668-52.227 80.215-23.615 3.1485-36.78 6.5003-48.043 15.881-16.234 13.521-15.769 19.068-12.957 18.635 2.8155-0.43309 23.544-5.8635 47.125-8.0273 4.6858-0.43317 11.691-0.48062 18.518-0.40039 0.82591 2.0977 1.7217 4.1835 2.752 6.1934-3.3125 1.0709-6.7879 2.2327-10.205 3.4961-7.3543 2.7153-16.823 8.69-13.414 11.066 7.1389 4.9762 26.374 3.2487 35.027 3.8984 0.75381 0.0396 1.584 0.0332 2.4062 0.041 2.2215 2.1578 4.5783 4.212 7.1094 6.1348 0.49726 0.42517 1.6084 0.91897 3.6699 4.416 9.3815 15.903 22.262 25.985 37.264 32.623-4.4823 1.119-8.86 2.2897-13.014 3.6133-84.071 26.752-135.84 154.52-109.38 252.46-0.56164 6.8907-0.82257 13.271-0.51367 18.52 1.7285 29.426 4.2988 41.568 4.2988 41.568-7.6999 5.2856-62.624 8.3503-98.607 5.1602-26.708-2.3664-49.586-3.9054-115.98-17.314 0 0 103.56 26.546 219.97 46.9l6.0781 34.059 0.51758-32.91c8.5962 1.48 17.231 2.9684 25.912 4.3574 29.908 4.7949 59.714 8.825 88.604 11.475v-61.904c-89.615-38.827-82.798-156.24-63.551-216.57 11.472-35.963 33.191-53.658 59.395-63.07 2.1438 21.673 3.571 36.025 4.1562 41.912v-187.9h12.424c9.6318-6.1895 20.899-11.494 33.762-15.305 7.2818-2.1575 14.423-4.4136 21.494-6.25h4e-3c7.0723 1.8328 14.212 4.0925 21.494 6.25 12.862 3.811 24.128 9.1153 33.76 15.305h56.424c-13.959-23.998-34.574-35.541-34.574-35.541l0.24219-15.021s3.4473-2.233 14.152-3.7852c17.036 14.186 34.016 32.869 41.24 54.348h6.8652c-7.2689-18.831-22.398-37.814-47.025-54.523 4.572-0.60968 10.232-1.1193 17.602-1.2637 29.675-0.5615 44.942-1.3401 68.395 6.9375l1.0547 48.85h5.7832c1.8501-13.034 3.359-27.039 4.3984-44.033 8.3665 4.7898 14.718 10.175 31.131 40.193 0.68152 1.2464 1.3238 2.5303 1.9356 3.8398h9.377c-9.6868-29.205-27.709-51.43-27.709-51.43s39.658 9.0652 89.875 51.43h37.252c-5.9416-6.6531-12.267-13.146-19.004-19.434-57.366-53.543-140.56-77.279-216.36-77.576-34.742-0.12045-67.887 4.6527-96.314 13.76-28.425-9.1067-61.569-13.896-96.311-13.76h-2e-3zm4.8242 42.66c10.707 1.5522 14.156 3.7852 14.156 3.7852l0.24023 15.021s-34.834 19.472-44.602 60.49c-2.6391-0.2405-7.8199-0.53656-14.562-0.11915-1.7966-31.914 21.446-59.757 44.768-79.178zm13.918 73.387 0.00781 2e-3c-0.12087 8.211-0.1606 15.492-0.24023 23.223-1.512-7.2676-1.8693-14.533-1.2031-21.443 0.47712-0.58959 0.93024-1.1916 1.4355-1.7812zm-14.553 28.041c2.5348 11.468 7.6103 20.842 14.16 28.553 0.01965 1.9894 0.01649 4.357 0.04101 5.332 0.03961 0.8503 0.2393 3.0089 0.35938 4.5879-13.094-9.7868-17.547-23.806-14.561-38.473zm-35.832 4.9883c1.2953 0.0404 2.8277 0.0791 3.8984 0.11914 0.03175 0.57758 0.07914 1.1392 0.12109 1.7207-0.81842 0.24049-1.5531 0.46544-2.5234 0.74219-0.50946-0.87434-1.027-1.7158-1.4922-2.5781zm-3.3828 124.71s-33.267 95.987-11.008 173.79c12.312 43.034 39.455 67.804 66.389 82.107-28.843-5.2972-50.46-13.647-66.561-22.533-16.479-15.645-28.45-37.027-31.072-66.34-10.402-116.28 42.252-167.02 42.252-167.02z" enable-background="new" fill="#fff"/>
   <path d="m-99.983 46.115v171.45h99.983v-12.106c-7.6437-0.70105-15.53-1.7674-23.443-3.036-2.297-0.36751-4.5815-0.76132-6.8559-1.1529l-0.13694 8.7075-1.6082-9.0113c-30.801-5.3855-58.202-12.409-58.202-12.409 17.566 3.5478 23.619 3.955 30.686 4.5811 9.5207 0.84407 24.053 0.0332 26.09-1.3653 0 0-0.68007-3.2126-1.1374-10.998-0.08173-1.3887-0.0127-3.0768 0.13591-4.9-6.9984-25.913 6.6976-59.718 28.941-66.796 1.099-0.35019 2.2573-0.65996 3.4432-0.95601-3.9691-1.7563-7.3772-4.424-9.8593-8.6315-0.54545-0.92526-0.83943-1.0559-0.971-1.1684-0.66969-0.50874-1.2933-1.0522-1.881-1.6232-0.21755-0.0021-0.43721-2.65e-4 -0.63665-0.01085-2.2896-0.1719-7.3788 0.28516-9.2676-1.0315-0.90206-0.62877 1.6033-2.2096 3.5491-2.928 0.90414-0.33428 1.8237-0.64168 2.7001-0.92501-0.2726-0.53177-0.5096-1.0836-0.72812-1.6387-1.8061-0.02122-3.6597-0.0087-4.8994 0.10594-6.2391 0.57252-11.724 2.0093-12.468 2.1239-0.74411 0.1145-0.86703-1.353 3.4282-4.9304 2.9799-2.4819 6.4632-3.3688 12.711-4.2018 0.14192-7.0239 4.3005-14.766 13.818-21.224-1.2098-0.16131-2.7067-0.292-4.6566-0.33435-7.8516-0.14952-11.891-0.35468-18.096 1.8355l-0.45424 21.057c-1.1273-6.0703-2.0216-11.647-2.5182-19.782-2.2137 1.2673-3.8935 2.692-8.2362 10.634-6.2213 11.378-1.2166 33.161-1.1529 33.193 0 0-3.4282-11.441-3.4282-23.12 0-11.678 8.9188-22.665 8.9188-22.665s-16.793 3.8257-34.796 24.5c-19.047 21.873-17.802 38.558-14.653 49.911 1.4671 5.2892 5.7042 6.6223 3.0794 9.9369-2.7306 3.4486-6.7813 5.8455-8.7979 0.13694-2.8002-7.9271-2.3361-49.049 26.56-76.019 15.178-14.166 37.189-20.451 57.245-20.525h0.00106c9.192-0.03598 17.961 1.2311 25.482 3.6406 7.5213-2.4096 16.291-3.6725 25.483-3.6406 20.056 0.07865 42.067 6.3588 57.246 20.525 1.7825 1.6637 3.4561 3.3815 5.0281 5.1418h24.98v-30.35zm152.31 15.506c-1.5798 6e-3 -3.304 0.04658-5.2669 0.08372-1.95 0.03821-3.4474 0.17304-4.6571 0.33435 6.5159 4.4211 10.519 9.4437 12.442 14.426h10.59l-0.27905-12.925c-4.6539-1.6426-8.0899-1.9372-12.829-1.9193zm-58.627 0.46406c-6.1704 5.1383-12.32 12.505-11.845 20.949 1.784-0.11044 3.1547-0.03211 3.853 0.03153 2.5843-10.853 11.801-16.005 11.801-16.005l-0.06356-3.9744s-0.91268-0.59081-3.7455-1.0015zm48.418 5.3e-4c-2.8324 0.41068-3.7445 1.0015-3.7445 1.0015l-0.0641 3.9744s5.4543 3.054 9.1478 9.4036h5.5723c-1.9114-5.6828-6.4041-10.626-10.911-14.379zm29.91 0.77205s4.7684 5.8803 7.3313 13.607h16.448c-13.287-11.209-23.779-13.607-23.779-13.607zm-3.8985 1.957c-0.27502 4.4965-0.67426 8.2018-1.1638 11.65h9.9126c-0.16185-0.34648-0.33179-0.68618-0.51211-1.016-4.3426-7.9425-6.0231-9.3672-8.2367-10.634zm-50.222 5.9474c-1.871 0.48588-3.7604 1.0828-5.687 1.6536-3.4032 1.0083-6.3844 2.4117-8.9328 4.0494h29.24c-2.5483-1.6376-5.5291-3.041-8.9323-4.0494-1.9267-0.57083-3.8158-1.1687-5.687-1.6536h-5.3e-4zm-20.525 10.74c-0.1337 0.156-0.25358 0.31529-0.37982 0.47129-0.17625 1.8283-0.08172 3.7507 0.31832 5.6736 0.02106-2.0455 0.03158-3.9718 0.06356-6.1443zm-3.8504 7.4192c-0.79006 3.8805 0.3881 7.5898 3.8525 10.179-0.03177-0.41778-0.08461-0.9889-0.09509-1.2139-0.0065-0.25797-0.0057-0.8844-0.01085-1.4108-1.733-2.0403-3.0759-4.5204-3.7465-7.5546zm-9.4806 1.3198 0.0011 0.0011c0.12308 0.22816 0.26001 0.45079 0.39481 0.68213 0.25672-0.07322 0.45112-0.13274 0.66766-0.19637-0.01111-0.15387-0.02363-0.30245-0.03204-0.45527-0.28331-0.01061-0.68875-0.02082-1.0315-0.03152zm14.85 24.849c-6.9331 2.4903-12.679 7.1722-15.715 16.687-5.0926 15.963-6.8962 47.029 16.814 57.302v-62.9c-0.15485-1.5577-0.53247-5.3549-1.0997-11.089zm-15.745 8.1463s-13.931 13.427-11.179 44.192c0.6938 7.7557 3.861 13.413 8.2212 17.552 4.2598 2.3512 9.9795 4.5604 17.611 5.9619-7.1261-3.7845-14.308-10.338-17.565-21.724-5.8894-20.585 2.9125-45.982 2.9125-45.982z" fill-opacity=".99313" filter="url(#filter2860)" opacity=".6" stroke-linecap="square" stroke-width=".26458"/>
  </g>
 </g>
</svg>
