<svg width="20" height="22" version="1.1" xmlns="http://www.w3.org/2000/svg">
 <defs>
  <filter id="filter856" x="-.108" y="-.108" width="1.216" height="1.216" color-interpolation-filters="sRGB">
   <feGaussianBlur stdDeviation="0.72000028"/>
  </filter>
 </defs>
 <path d="m9.714 3a1.14 1.14 0 0 0-1.143 1.143v0.743a6.286 6.286 0 0 0-1.892 0.783l-0.518-0.518a1.14 1.14 0 0 0-1.616 0l-0.403 0.405a1.14 1.14 0 0 0 0 1.616l0.521 0.52a6.286 6.286 0 0 0-0.778 1.88h-0.743a1.14 1.14 0 0 0-1.142 1.141v0.573c0 0.633 0.51 1.142 1.142 1.142h0.743a6.286 6.286 0 0 0 0.783 1.892l-0.526 0.528a1.14 1.14 0 0 0 0 1.617l0.403 0.404a1.14 1.14 0 0 0 1.616 0l0.533-0.533a6.286 6.286 0 0 0 1.877 0.778v0.743c0 0.633 0.51 1.142 1.143 1.142h0.572a1.14 1.14 0 0 0 1.143-1.142v-0.743a6.286 6.286 0 0 0 1.878-0.776l0.532 0.531a1.14 1.14 0 0 0 1.616 0l0.404-0.404a1.14 1.14 0 0 0 0-1.617l-0.53-0.531a6.286 6.286 0 0 0 0.786-1.889h0.743a1.14 1.14 0 0 0 1.142-1.142v-0.573a1.14 1.14 0 0 0-1.142-1.143h-0.743a6.286 6.286 0 0 0-0.776-1.878l0.52-0.52a1.14 1.14 0 0 0 0-1.617l-0.404-0.405a1.14 1.14 0 0 0-1.616 0l-0.52 0.52a6.286 6.286 0 0 0-1.89-0.785v-0.743a1.14 1.14 0 0 0-1.143-1.143h-0.572zm0.286 4.445a3.556 3.556 0 0 1 3.556 3.555 3.556 3.556 0 0 1-3.556 3.556 3.556 3.556 0 0 1-3.556-3.556 3.556 3.556 0 0 1 3.556-3.555z" filter="url(#filter856)" opacity=".5"/>
 <path d="m9.714 1a1.14 1.14 0 0 0-1.143 1.143v0.743a6.286 6.286 0 0 0-1.892 0.783l-0.518-0.518a1.14 1.14 0 0 0-1.616 0l-0.403 0.405a1.14 1.14 0 0 0 0 1.616l0.521 0.52a6.286 6.286 0 0 0-0.778 1.88h-0.743a1.14 1.14 0 0 0-1.142 1.141v0.573c0 0.633 0.51 1.142 1.142 1.142h0.743a6.286 6.286 0 0 0 0.783 1.892l-0.526 0.528a1.14 1.14 0 0 0 0 1.617l0.403 0.404a1.14 1.14 0 0 0 1.616 0l0.533-0.533a6.286 6.286 0 0 0 1.877 0.778v0.743c0 0.633 0.51 1.142 1.143 1.142h0.572a1.14 1.14 0 0 0 1.143-1.142v-0.743a6.286 6.286 0 0 0 1.878-0.776l0.532 0.531a1.14 1.14 0 0 0 1.616 0l0.404-0.404a1.14 1.14 0 0 0 0-1.617l-0.53-0.531a6.286 6.286 0 0 0 0.786-1.889h0.743a1.14 1.14 0 0 0 1.142-1.142v-0.573a1.14 1.14 0 0 0-1.142-1.143h-0.743a6.286 6.286 0 0 0-0.776-1.878l0.52-0.52a1.14 1.14 0 0 0 0-1.617l-0.404-0.405a1.14 1.14 0 0 0-1.616 0l-0.52 0.52a6.286 6.286 0 0 0-1.89-0.785v-0.743a1.14 1.14 0 0 0-1.143-1.143h-0.572zm0.286 4.445a3.556 3.556 0 0 1 3.556 3.555 3.556 3.556 0 0 1-3.556 3.556 3.556 3.556 0 0 1-3.556-3.556 3.556 3.556 0 0 1 3.556-3.555z" fill="#fff"/>
 <path d="m9.714 2a1.14 1.14 0 0 0-1.143 1.143v0.743a6.286 6.286 0 0 0-1.892 0.783l-0.518-0.518a1.14 1.14 0 0 0-1.616 0l-0.403 0.405a1.14 1.14 0 0 0 0 1.616l0.521 0.52a6.286 6.286 0 0 0-0.778 1.88h-0.743a1.14 1.14 0 0 0-1.142 1.141v0.573c0 0.633 0.51 1.142 1.142 1.142h0.743a6.286 6.286 0 0 0 0.783 1.892l-0.526 0.528a1.14 1.14 0 0 0 0 1.617l0.403 0.404a1.14 1.14 0 0 0 1.616 0l0.533-0.533a6.286 6.286 0 0 0 1.877 0.778v0.743c0 0.633 0.51 1.142 1.143 1.142h0.572a1.14 1.14 0 0 0 1.143-1.142v-0.743a6.286 6.286 0 0 0 1.878-0.776l0.532 0.531a1.14 1.14 0 0 0 1.616 0l0.404-0.404a1.14 1.14 0 0 0 0-1.617l-0.53-0.531a6.286 6.286 0 0 0 0.786-1.889h0.743a1.14 1.14 0 0 0 1.142-1.142v-0.573a1.14 1.14 0 0 0-1.142-1.143h-0.743a6.286 6.286 0 0 0-0.776-1.878l0.52-0.52a1.14 1.14 0 0 0 0-1.617l-0.404-0.405a1.14 1.14 0 0 0-1.616 0l-0.52 0.52a6.286 6.286 0 0 0-1.89-0.785v-0.743a1.14 1.14 0 0 0-1.143-1.143h-0.572zm0.286 4.445a3.556 3.556 0 0 1 3.556 3.555 3.556 3.556 0 0 1-3.556 3.556 3.556 3.556 0 0 1-3.556-3.556 3.556 3.556 0 0 1 3.556-3.555z" fill="#722"/>
</svg>
