<svg width="32" height="34" version="1.1" viewBox="0 0 8.4667 8.9959" xmlns="http://www.w3.org/2000/svg">
 <defs>
  <filter id="filter1366" x="-.074763" y="-.075239" width="1.1495" height="1.1505" color-interpolation-filters="sRGB">
   <feGaussianBlur stdDeviation="0.22141072"/>
  </filter>
 </defs>
 <g stroke-linecap="square">
  <g stroke-width=".28139">
   <path d="m4.4287 1.215c-0.3048 0.00579-0.54772 0.18546-0.54777 0.40514 1.39e-4 0.087604 0.039664 0.17282 0.11266 0.24288-0.48253 0.076119-0.93842 0.27059-1.3265 0.56586 0.014982-0.12091-0.016757-0.22812-0.088884-0.30024-0.15829-0.15816-0.46454-0.10843-0.6842 0.1111-0.21994 0.21966-0.26993 0.52628-0.11162 0.68472 0.073626 0.073579 0.18372 0.10503 0.30748 0.08785-0.28961 0.38932-0.47764 0.84404-0.54726 1.3234-0.07346-0.087118-0.16693-0.13495-0.26355-0.13488-0.22389-2.37e-4 -0.40552 0.2515-0.40566 0.56224-6.741e-5 0.31094 0.18162 0.563 0.40566 0.56276 0.1109 0.45486 0.49599 0.70383 0.73122 1.0594-0.15907-0.051724-0.30895-0.027257-0.40204 0.06563-0.15853 0.15826-0.10877 0.46491 0.1111 0.68472 0.21966 0.21954 0.52591 0.26927 0.6842 0.1111 0.45516 0.22864 1.0392 0.61062 1.4624 0.73115-2.373e-4 0.22404 0.25182 0.40573 0.56276 0.40566 0.31094 6.73e-5 0.563-0.18162 0.56276-0.40566 0.52868-0.20091 1.0576-0.67511 1.4149-0.72805 0.15829 0.15816 0.46454 0.10843 0.6842-0.1111 0.21988-0.2198 0.26964-0.52645 0.1111-0.68472-0.069724-0.069549-0.17222-0.10151-0.28836-0.089917 0.30353-0.35965 0.52586-0.79031 0.66198-1.1198 0.22404 2.363e-4 0.40573-0.25182 0.40566-0.56276-1.383e-4 -0.31074-0.18177-0.56248-0.40566-0.56224-0.081479-4.47e-5 -0.16108 0.033992-0.22841 0.097669-0.087844-0.4679-0.28899-0.90744-0.58601-1.2805 0.13396 0.02576 0.25474-0.00434 0.33383-0.083199 0.15816-0.15829 0.10843-0.46454-0.1111-0.6842-0.21966-0.21954-0.52591-0.26927-0.6842-0.1111-0.083362 0.083361-0.11223 0.21296-0.079065 0.35502-0.38842-0.28993-0.8429-0.47971-1.3229-0.55242 0.07097-0.069675 0.10918-0.15387 0.10904-0.2403-1.592e-4 -0.22384-0.2521-0.40521-0.56276-0.40514-5e-3 -4.79e-5 -0.00999-4.79e-5 -0.014986 0zm-0.010853 1.5033c0.00896-5.74e-5 0.017915-5.74e-5 0.026872 0 1.1534 8.76e-5 2.101 0.82772 2.101 1.9758 4.88e-5 1.1481-0.94305 1.5633-2.0964 1.5634-1.1536 1.966e-4 -2.0934-0.44429-2.0933-1.5926-1.407e-4 -1.1379 0.91883-1.9322 2.0619-1.9466zm1.712 0.32705c1.2716 0.95873 1.0655 2.3699 0.22415 3.189-0.69262 0.67431-2.5013 1.1473-3.0126 0.17032 2.4398 0.7263 4.2718-1.1987 2.7885-3.3593z" filter="url(#filter1366)"/>
   <path d="m4.4287 0.68584c-0.3048 0.005786-0.54772 0.18546-0.54777 0.40514 1.39e-4 0.087604 0.039664 0.17282 0.11266 0.24288-0.48253 0.076119-0.93842 0.27059-1.3265 0.56586 0.014982-0.12091-0.016757-0.22812-0.088884-0.30024-0.15829-0.15816-0.46454-0.10843-0.6842 0.1111-0.21994 0.21966-0.26993 0.52628-0.11162 0.68472 0.073626 0.073579 0.18372 0.10503 0.30748 0.08785-0.28961 0.38932-0.47764 0.84404-0.54726 1.3234-0.07346-0.087118-0.16693-0.13495-0.26355-0.13488-0.22389-2.37e-4 -0.40552 0.2515-0.40566 0.56224-6.733e-5 0.31094 0.18162 0.563 0.40566 0.56276 0.097396-1.293e-4 0.1915-0.048925 0.2651-0.13746 0.064514 0.42834 0.22371 0.8371 0.46612 1.1968-0.15907-0.051724-0.30895-0.027257-0.40204 0.065629-0.15853 0.15826-0.10877 0.46491 0.1111 0.68472 0.21966 0.21954 0.52591 0.26927 0.6842 0.1111 0.07427-0.074087 0.10576-0.18523 0.08785-0.31006 0.41436 0.36917 0.92538 0.61392 1.4738 0.7059-0.064502 0.067497-0.099096 0.14749-0.099219 0.22944-2.37e-4 0.22404 0.25182 0.40573 0.56276 0.40566 0.31094 6.73e-5 0.563-0.18162 0.56276-0.40566-2.83e-4 -0.079019-0.032615-0.15626-0.093018-0.22221 0.51968-0.079 1.0086-0.29509 1.4159-0.6258 0.00347 0.090631 0.035475 0.1692 0.091985 0.22583 0.15829 0.15816 0.46454 0.10843 0.6842-0.1111 0.21988-0.2198 0.26964-0.52645 0.1111-0.68472-0.069724-0.069549-0.17222-0.10151-0.28836-0.089917 0.23875-0.36147 0.39405-0.77109 0.45475-1.1994 0.062654 0.051933 0.13425 0.079427 0.20722 0.079582 0.22404 2.367e-4 0.40573-0.25182 0.40566-0.56276-1.383e-4 -0.31074-0.18177-0.56248-0.40566-0.56224-0.081479-4.46e-5 -0.16108 0.033992-0.22841 0.097669-0.087844-0.4679-0.28899-0.90744-0.58601-1.2805 0.13396 0.02576 0.25474-0.00434 0.33383-0.083199 0.15816-0.15829 0.10843-0.46454-0.1111-0.6842-0.21966-0.21954-0.52591-0.26927-0.6842-0.1111-0.083362 0.083361-0.11223 0.21296-0.079065 0.35502-0.38842-0.28993-0.8429-0.47971-1.3229-0.55242 0.07097-0.069675 0.10918-0.15387 0.10904-0.2403-1.592e-4 -0.22384-0.2521-0.40521-0.56276-0.40514-5e-3 -4.794e-5 -0.00999-4.794e-5 -0.014986 0zm-0.010853 1.371c0.00896-5.74e-5 0.017915-5.74e-5 0.026872 0 1.1534 8.76e-5 2.0883 0.93085 2.0883 2.079 4.89e-5 1.1481-1.0027 1.907-2.1561 1.9071-1.1536 1.965e-4 -2.021-0.75882-2.0209-1.9071-1.406e-4 -1.1379 0.91883-2.0645 2.0619-2.079zm1.712 0.45941c1.2716 0.95873 1.1018 2.8283 0.26045 3.6473-0.69262 0.67431-2.5221 1.0281-3.0334 0.05116 2.4398 0.7263 4.2563-1.5379 2.773-3.6985z"/>
   <path d="m4.4287 3.5956e-5c-0.3048 0.0057861-0.54772 0.18546-0.54777 0.40514 1.39e-4 0.087604 0.039664 0.17282 0.11266 0.24288-0.48253 0.076119-0.93842 0.27059-1.3265 0.56586 0.014982-0.12091-0.016757-0.22812-0.088884-0.30024-0.15829-0.15816-0.46454-0.10843-0.6842 0.1111-0.21994 0.21966-0.26993 0.52628-0.11162 0.68472 0.073626 0.073579 0.18372 0.10503 0.30748 0.08785-0.28961 0.38932-0.47764 0.84404-0.54726 1.3234-0.07346-0.087118-0.16693-0.13495-0.26355-0.13488-0.22389-2.369e-4 -0.40552 0.2515-0.40566 0.56224-6.733e-5 0.31094 0.18162 0.563 0.40566 0.56276 0.097396-1.293e-4 0.1915-0.048925 0.2651-0.13746 0.064514 0.42834 0.22371 0.8371 0.46612 1.1968-0.15907-0.051724-0.30895-0.027257-0.40204 0.065629-0.15853 0.15826-0.10877 0.46491 0.1111 0.68472 0.21966 0.21954 0.52591 0.26927 0.6842 0.1111 0.07427-0.074087 0.10576-0.18523 0.08785-0.31006 0.41436 0.36917 0.61882 0.63101 1.1673 0.723-0.064502 0.067497 0.20747 0.1304 0.20734 0.21235-2.37e-4 0.22404 0.25182 0.40573 0.56276 0.40566 0.31094 6.73e-5 0.563-0.18162 0.56276-0.40566 0.586 0.044262 1.023-0.31461 1.4149-0.62219 0.15829 0.15816 0.46454 0.10843 0.6842-0.1111 0.21988-0.2198 0.26964-0.52645 0.1111-0.68472-0.069724-0.069549-0.17222-0.10151-0.28836-0.089917 0.23875-0.36147 0.39405-0.77109 0.45475-1.1994 0.062654 0.051933 0.13425 0.079427 0.20722 0.079582 0.22404 2.367e-4 0.40573-0.25182 0.40566-0.56276-1.384e-4 -0.31074-0.18177-0.56248-0.40566-0.56224-0.081479-4.46e-5 -0.16108 0.033992-0.22841 0.097669-0.087844-0.4679-0.28899-0.90744-0.58601-1.2805 0.13396 0.02576 0.25474-0.00434 0.33383-0.083199 0.15816-0.15829 0.10843-0.46454-0.1111-0.6842-0.21966-0.21954-0.52591-0.26927-0.6842-0.1111-0.083362 0.083361-0.11223 0.21296-0.079065 0.35502-0.38842-0.28993-0.8429-0.47971-1.3229-0.55242 0.07097-0.069675 0.10918-0.15387 0.10904-0.2403-1.592e-4 -0.22384-0.2521-0.40521-0.56276-0.40514-5e-3 -4.7942e-5 -0.00999-4.7942e-5 -0.014986 0zm-0.010853 1.371c0.00896-5.74e-5 0.017915-5.74e-5 0.026872 0 1.1209-0.038637 1.8793 0.68138 2.0883 2.079 4.89e-5 1.1481-0.93488 2.0789-2.0883 2.079-1.1536 1.966e-4 -2.0888-0.93065-2.0888-2.079-1.406e-4 -1.1379 0.91883-2.0645 2.0619-2.079zm1.712 0.45941c1.156 1.7727 1.0753 2.8503 0.32304 3.7519-0.78668 0.94287-2.7971 1.2398-3.3347-0.00313 2.6492 1.4648 4.4951-1.5881 3.0117-3.7487z" fill="#fff"/>
  </g>
  <path transform="scale(.26458)" d="m16.738 1.5918a2.1263 1.532 0 0 0-2.0703 1.5312 2.1263 1.532 0 0 0 0.42578 0.91797 11.122 11.067 0 0 0-5.0137 2.1387 1.532 2.1263 45 0 0-0.33594-1.1348 1.532 2.1263 45 0 0-2.5859 0.41992 1.532 2.1263 45 0 0-0.42188 2.5879 1.532 2.1263 45 0 0 1.1621 0.33203 11.122 11.067 0 0 0-2.0684 5.002 1.532 2.1263 0 0 0-0.99609-0.50977 1.532 2.1263 0 0 0-1.5332 2.125 1.532 2.1263 0 0 0 1.5332 2.127 1.532 2.1263 0 0 0 1.002-0.51953 11.122 11.067 0 0 0 1.7617 4.5234 2.1263 1.532 45 0 0-1.5195 0.24805 2.1263 1.532 45 0 0 0.41992 2.5879 2.1263 1.532 45 0 0 2.5859 0.41992 2.1263 1.532 45 0 0 0.33203-1.1719 11.122 11.067 0 0 0 5.5703 2.668 2.1263 1.532 0 0 0-0.375 0.86719 2.1263 1.532 0 0 0 2.127 1.5332 2.1263 1.532 0 0 0 2.127-1.5332 2.1263 1.532 0 0 0-0.35156-0.83984 11.122 11.067 0 0 0 5.3516-2.3652 1.532 2.1263 45 0 0 0.34766 0.85352 1.532 2.1263 45 0 0 2.5859-0.41992 1.532 2.1263 45 0 0 0.41992-2.5879 1.532 2.1263 45 0 0-1.0898-0.33984 11.122 11.067 0 0 0 1.7188-4.5332 1.532 2.1263 0 0 0 0.7832 0.30078 1.532 2.1263 0 0 0 1.5332-2.127 1.532 2.1263 0 0 0-1.5332-2.125 1.532 2.1263 0 0 0-0.86328 0.36914 11.122 11.067 0 0 0-2.2148-4.8398 2.1263 1.532 45 0 0 1.2617-0.31445 2.1263 1.532 45 0 0-0.41992-2.5859 2.1263 1.532 45 0 0-2.5859-0.41992 2.1263 1.532 45 0 0-0.29883 1.3418 11.122 11.067 0 0 0-5-2.0879 2.1263 1.532 0 0 0 0.41211-0.9082 2.1263 1.532 0 0 0-2.127-1.5312 2.1263 1.532 0 0 0-0.05664 0zm-0.04101 5.1816a7.8932 7.8571 0 0 1 0.10156 0 7.8932 7.8571 0 0 1 7.8926 7.8574 7.8932 7.8571 0 0 1-7.8926 7.8574 7.8932 7.8571 0 0 1-7.8945-7.8574 7.8932 7.8571 0 0 1 7.793-7.8574zm6.4707 1.7363c4.806 3.6235 4.1641 10.689 0.98438 13.785-2.6177 2.5486-9.5325 3.8858-11.465 0.19336 9.2213 2.745 16.087-5.8124 10.48-13.979z" fill="#ddd" stroke-width="1.0635"/>
 </g>
</svg>
