<?xml version="1.0" encoding="UTF-8"?>
<svg width="20" height="22" version="1.1" xmlns="http://www.w3.org/2000/svg" xmlns:cc="http://creativecommons.org/ns#" xmlns:dc="http://purl.org/dc/elements/1.1/" xmlns:rdf="http://www.w3.org/1999/02/22-rdf-syntax-ns#">
 <metadata>
  <rdf:RDF>
   <cc:Work rdf:about="">
    <dc:format>image/svg+xml</dc:format>
    <dc:type rdf:resource="http://purl.org/dc/dcmitype/StillImage"/>
    <dc:title/>
   </cc:Work>
  </rdf:RDF>
 </metadata>
 <defs>
  <filter id="filter885" x="-.075" y="-.075" width="1.15" height="1.15" color-interpolation-filters="sRGB">
   <feGaussianBlur stdDeviation="0.5"/>
  </filter>
 </defs>
 <g>
  <path d="m10 3a8 8 0 0 0-8 8 8 8 0 0 0 8 8 8 8 0 0 0 8-8 8 8 0 0 0-8-8zm-0.39258 2.0137c-1.5196 0.70655-2.8887 2.3757-4.3945 2.3711a6 6 0 0 1 4.3945-2.3711zm3.7363 1.0039a6 6 0 0 1 2.6367 4.5117c-3.1415-1.3746-4.0047-0.72008-3.5176 0.4707 0.53731 1.3134 0.53711 3-0.46289 3-0.78148 0-0.94901 2.0118-0.98633 2.9121a6 6 0 0 1-1.0137 0.087891 6 6 0 0 1-5.998-5.8398c1.9898-2.1195 4.7986 0.42161 5.998-0.47266 1.6029-1.1951 0-2.6875 0-3.6875 0-0.74433 2.2106-0.93377 3.3438-0.98242z" filter="url(#filter885)" opacity=".5"/>
  <path d="m10 1a8 8 0 0 0-8 8 8 8 0 0 0 8 8 8 8 0 0 0 8-8 8 8 0 0 0-8-8zm-0.39258 2.0137c-1.5196 0.70655-2.8887 2.3757-4.3945 2.3711a6 6 0 0 1 4.3945-2.3711zm3.7363 1.0039a6 6 0 0 1 2.6367 4.5117c-3.1415-1.3746-4.0047-0.72008-3.5176 0.4707 0.53731 1.3134 0.53711 3-0.46289 3-0.78148 0-0.94901 2.0118-0.98633 2.9121a6 6 0 0 1-1.0137 0.087891 6 6 0 0 1-5.998-5.8398c1.9898-2.1195 4.7986 0.42161 5.998-0.47266 1.6029-1.1951 0-2.6875 0-3.6875 0-0.74433 2.2106-0.93377 3.3438-0.98242z" fill="#fff"/>
  <path d="m10 2a8 8 0 0 0-8 8 8 8 0 0 0 8 8 8 8 0 0 0 8-8 8 8 0 0 0-8-8zm-0.39258 2.0137c-1.5196 0.70655-2.8887 2.3757-4.3945 2.3711a6 6 0 0 1 4.3945-2.3711zm3.7363 1.0039a6 6 0 0 1 2.6367 4.5117c-3.1415-1.3746-4.0047-0.72008-3.5176 0.4707 0.53731 1.3134 0.53711 3-0.46289 3-0.78148 0-0.94901 2.0118-0.98633 2.9121a6 6 0 0 1-1.0137 0.087891 6 6 0 0 1-5.998-5.8398c1.9898-2.1195 4.7986 0.42161 5.998-0.47266 1.6029-1.1951 0-2.6875 0-3.6875 0-0.74433 2.2106-0.93377 3.3438-0.98242z" fill="#722"/>
 </g>
</svg>
