<svg width="32" height="34" version="1.1" viewBox="0 0 8.4667 8.9959" xmlns="http://www.w3.org/2000/svg">
 <defs>
  <filter id="filter948" x="-.074641" y="-.075362" width="1.1493" height="1.1507" color-interpolation-filters="sRGB">
   <feGaussianBlur stdDeviation="0.22182195"/>
  </filter>
 </defs>
 <g stroke-width="1.7023">
  <path d="m4.3038 0.66146c-1.9675 0-3.5662 1.583-3.5662 3.5331s1.5987 3.5311 3.5662 3.5311 3.5662-1.5809 3.5662-3.5311c0-1.9501-1.5987-3.5331-3.5662-3.5331zm0 0.25373c0.06666 0 0.13173 0.00598 0.1974 0.00982-0.6713 0.28393-0.2518 1.1017-0.72657 1.1017-0.36849-4.1e-6 -1.2541-0.047082-1.8071-0.15865 0.59904-0.58899 1.4243-0.95292 2.3363-0.95292zm1.4402 0.68988c0.25849-0.022268 0.52154 0.055047 0.74156 0.12506 0.69209 0.60096 1.1307 1.4809 1.1307 2.4645 0 0.077292-0.0066 0.15298-0.01189 0.22893-0.16566-0.49201-0.46136-1.0591-1.0744-1.0666v-5.292e-4c-0.19868-0.00249-0.43011 0.054516-0.70125 0.19172-0.11459 2.4019-0.84656 2.5342-1.9994 3.2463-0.32087 0.1982-0.45501 0.37882-0.52038 0.5271-0.69343-0.21517-1.286-0.65118-1.6996-1.2227-1.41e-4 -1.96e-4 -3.76e-4 -3.175e-4 -5.16e-4 -5.291e-4 -0.30825-0.75793-0.41208-1.9128 0.81029-2.5637 0.97877-0.5211 2.0268 0.46164 2.5265-0.092501 0.56548-0.62721-0.08684-1.0115 0.21291-1.4805 0.1549-0.24236 0.36434-0.33752 0.5855-0.35657zm-1.3141 5.5919a0.92046 0.41531 0 0 1 0.0072 0 0.92046 0.41531 0 0 1 0.72554 0.15968c-0.27429 0.07261-0.56119 0.11524-0.85887 0.11524-0.22771 0-0.44982-0.02299-0.66456-0.06615a0.92046 0.41531 0 0 1 0.79065-0.20877z"/>
  <path d="m4.3038 1.3261c-1.9675 0-3.5662 1.583-3.5662 3.5331s1.5987 3.5311 3.5662 3.5311 3.5662-1.5809 3.5662-3.5311c0-1.9501-1.5987-3.5331-3.5662-3.5331zm0 0.25373c0.06666 0 0.13173 0.00598 0.1974 0.00982-0.6713 0.28393-0.2518 1.1017-0.72657 1.1017-0.36849-4.1e-6 -1.2541-0.047082-1.8071-0.15865 0.59904-0.58899 1.4243-0.95292 2.3363-0.95292zm1.4402 0.68988c0.25849-0.022268 0.52154 0.055047 0.74156 0.12506 0.69209 0.60096 1.1307 1.4809 1.1307 2.4645 0 0.077292-0.0066 0.15298-0.01189 0.22893-0.16566-0.49201-0.46136-1.0591-1.0744-1.0666v-5.292e-4c-0.19868-0.00249-0.43011 0.054516-0.70125 0.19172-0.11459 2.4019-0.84656 2.5342-1.9994 3.2463-0.32087 0.1982-0.45501 0.37882-0.52038 0.5271-0.69343-0.21517-1.286-0.65118-1.6996-1.2227-1.41e-4 -1.96e-4 -3.76e-4 -3.175e-4 -5.16e-4 -5.291e-4 -0.30825-0.75793-0.41208-1.9128 0.81029-2.5637 0.97877-0.5211 2.0268 0.46164 2.5265-0.092501 0.56548-0.62721-0.08684-1.0115 0.21291-1.4805 0.1549-0.24236 0.36434-0.33752 0.5855-0.35657zm-1.3141 5.5919a0.92046 0.41531 0 0 1 0.0072 0 0.92046 0.41531 0 0 1 0.72554 0.15968c-0.27429 0.07261-0.56119 0.11524-0.85887 0.11524-0.22771 0-0.44982-0.02299-0.66456-0.06615a0.92046 0.41531 0 0 1 0.79065-0.20877z" filter="url(#filter948)"/>
  <path d="m4.3038 0c-1.9675-1e-7 -3.5662 1.583-3.5662 3.5331s1.5987 3.5311 3.5662 3.5311 3.5662-1.5809 3.5662-3.5311c0-1.9501-1.5987-3.5331-3.5662-3.5331zm0 0.25373c0.06666 0 0.13173 0.00599 0.1974 0.00982-0.6713 0.28393-0.2518 1.1017-0.72657 1.1017-0.36849-4.1e-6 -1.2541-0.047082-1.8071-0.15865 0.59904-0.58899 1.4243-0.95292 2.3363-0.95292zm1.4402 0.68988c0.25849-0.022268 0.52154 0.055047 0.74156 0.12506 0.69209 0.60096 1.1307 1.4809 1.1307 2.4645 0 0.077292-0.0066 0.15298-0.01189 0.22893-0.16566-0.49201-0.46136-1.0591-1.0744-1.0666v-5.292e-4c-0.19868-0.00249-0.43011 0.054516-0.70125 0.19172-0.11459 2.4019-0.84656 2.5342-1.9994 3.2463-0.32087 0.1982-0.45501 0.37882-0.52038 0.5271-0.69343-0.21517-1.286-0.65118-1.6996-1.2227-1.41e-4 -1.96e-4 -3.76e-4 -3.175e-4 -5.16e-4 -5.291e-4 -0.30825-0.75793-0.41208-1.9128 0.81029-2.5637 0.97877-0.5211 2.0268 0.46164 2.5265-0.092501 0.56548-0.62721-0.08684-1.0115 0.21291-1.4805 0.1549-0.24236 0.36434-0.33752 0.5855-0.35657zm-1.3141 5.5919a0.92046 0.41531 0 0 1 0.0072 0 0.92046 0.41531 0 0 1 0.72554 0.15968c-0.27429 0.07261-0.56119 0.11524-0.85887 0.11524-0.22771 0-0.44982-0.022995-0.66456-0.066146a0.92046 0.41531 0 0 1 0.79065-0.20877z" fill-opacity=".50196"/>
  <path d="m4.3038 0.13229c-1.9675-1e-7 -3.5662 1.583-3.5662 3.5331s1.5987 3.5311 3.5662 3.5311 3.5662-1.5809 3.5662-3.5311c0-1.9501-1.5987-3.5331-3.5662-3.5331zm0 0.25373c0.06666 0 0.13173 0.00599 0.1974 0.00982-0.6713 0.28393-0.2518 1.1017-0.72657 1.1017-0.36849-4.1e-6 -1.2541-0.047082-1.8071-0.15865 0.59904-0.58899 1.4243-0.95292 2.3363-0.95292zm1.4402 0.68988c0.25849-0.022268 0.52154 0.055047 0.74156 0.12506 0.69209 0.60096 1.1307 1.4809 1.1307 2.4645 0 0.077292-0.0066 0.15298-0.01189 0.22893-0.16566-0.49201-0.46136-1.0591-1.0744-1.0666v-5.292e-4c-0.19868-0.00249-0.43011 0.054516-0.70125 0.19172-0.11459 2.4019-0.84656 2.5342-1.9994 3.2463-0.32087 0.1982-0.45501 0.37882-0.52038 0.5271-0.69343-0.21517-1.286-0.65118-1.6996-1.2227-1.41e-4 -1.96e-4 -3.76e-4 -3.175e-4 -5.16e-4 -5.291e-4 -0.30825-0.75793-0.41208-1.9128 0.81029-2.5637 0.97877-0.5211 2.0268 0.46164 2.5265-0.092501 0.56548-0.62721-0.08684-1.0115 0.21291-1.4805 0.1549-0.24236 0.36434-0.33752 0.5855-0.35657zm-1.3141 5.5919a0.92046 0.41531 0 0 1 0.0072 0 0.92046 0.41531 0 0 1 0.72554 0.15968c-0.27429 0.07261-0.56119 0.11524-0.85887 0.11524-0.22771 0-0.44982-0.022995-0.66456-0.066146a0.92046 0.41531 0 0 1 0.79065-0.20877z" fill="#fff"/>
  <path d="m4.3038 0.39688c-1.9675-4e-8 -3.5662 1.583-3.5662 3.5331s1.5987 3.5311 3.5662 3.5311 3.5662-1.5809 3.5662-3.5311c0-1.9501-1.5987-3.5331-3.5662-3.5331zm0 0.25373c0.06666 0 0.13173 0.005985 0.1974 0.009819-0.6713 0.28393-0.2518 1.1017-0.72657 1.1017-0.36849-4.1e-6 -1.2541-0.047082-1.8071-0.15865 0.59904-0.58899 1.4243-0.95292 2.3363-0.95292zm1.4402 0.68988c0.25849-0.022268 0.52154 0.055047 0.74156 0.12506 0.69209 0.60096 1.1307 1.4809 1.1307 2.4645 0 0.077292-0.0066 0.15298-0.01189 0.22893-0.16566-0.49201-0.46136-1.0591-1.0744-1.0666v-5.17e-4c-0.19868-0.0025-0.43011 0.054516-0.70125 0.19172-0.11459 2.4019-0.84656 2.5342-1.9994 3.2463-0.32087 0.1982-0.45501 0.37882-0.52038 0.5271-0.69343-0.21517-1.286-0.65118-1.6996-1.2227-1.41e-4 -1.958e-4 -3.75e-4 -3.213e-4 -5.16e-4 -5.168e-4 -0.30825-0.75795-0.41208-1.9128 0.81029-2.5637 0.97877-0.5211 2.0268 0.46164 2.5265-0.092501 0.56548-0.62721-0.08684-1.0115 0.21291-1.4805 0.1549-0.24236 0.36434-0.33752 0.5855-0.35657zm-1.3141 5.5919a0.92046 0.41531 0 0 1 0.0072 0 0.92046 0.41531 0 0 1 0.72554 0.15968c-0.27429 0.07261-0.56119 0.11524-0.85887 0.11524-0.22771 0-0.44982-0.022996-0.66456-0.066146a0.92046 0.41531 0 0 1 0.79065-0.20877z" fill="#ccc"/>
 </g>
</svg>
