<svg width="20" height="22" version="1.1" xmlns="http://www.w3.org/2000/svg">
 <defs>
  <filter id="filter883" x="-.070809" y="-.079718" width="1.1416" height="1.1594" color-interpolation-filters="sRGB">
   <feGaussianBlur stdDeviation="0.54138217"/>
  </filter>
 </defs>
 <path d="m5.2852 2.859c-1.464 3.382-3.0032 6.7329-4.5352 10.086 0.617-0.138 1.2512-0.07083 1.7812-0.04883 0.287-1.126 0.76702-2.3211 1.166-3.3301a52.504 52.504 0 0 1 3.3379-2e-3c0.407 1.105 0.8 2.2147 1.125 3.3457a14.378 14.378 0 0 1 2.0332-0.04492c-4.405 3.7445-0.77487 7.2806 1.8945 3.7383 0.136 0.606 0.59973 1.2075 0.92773 1.1465 0.606-0.16 0.63433-0.3543 0.61133-0.6543-0.085-0.431-0.52076-0.5492-0.75976-1.2832 1.072-1.305 1.7314-2.8071 2.1074-4.2051 5.68 0.198 2.7745 6.0749-0.85352 6.8359h-0.0039l-2e-3 2e-3c-0.38 0.346-0.80875 0.67389-0.84375 0.71289 6.174-0.655 8.4529-8.5032 1.7949-8.3262-8e-3 -0.826-0.5948-0.98976-0.9668-0.75976-0.404 0.282-0.03069 0.4327-0.05469 0.8457-0.559 0.13-1.1 0.32355-1.623 0.56055 0.04-0.655 0.09587-1.3414 0.17188-2.0664 1.348-0.36 2.7557-0.76909 3.9707-1.2461 2e-3 -0.302-0.2927-0.50227-0.4707-0.57227-0.662-0.275-1.6746 0.34498-3.3906 0.83398 0.022-0.636 0.285-1.2046 0.5-1.7266-0.218-0.656-0.8882-0.665-1.4082-0.75-0.077 0.951-0.08756 1.8866-0.10156 2.7266-0.94287 0.18044-1.6589 0.21803-2.4804 0.16406-0.87765-2.0974-1.7189-4.1569-2.4453-5.9824zm0.14062 2.6367c0.425 1.004 0.8288 2.0162 1.2168 3.0352-0.84 0.021-1.6786 0.016-2.5176 0zm4.0703 4.0078c0.5765 0.11269 1.4885 0.10117 2.1367 0.06445-0.04 0.828-0.08109 1.6053-0.12109 2.3203-0.28494 0.18077-0.52514 0.36116-0.76953 0.54297-0.42983-0.97299-0.83314-1.9492-1.2461-2.9277zm4.3848 2.3125a10.673 10.673 0 0 1-1.3613 2.7793 22.604 22.604 0 0 1-0.10547-2.1504c0.49-0.31 0.9798-0.49691 1.4668-0.62891zm-2.293 1.1562c8e-3 1.215 0.05778 2.1379 0.17578 2.6699-2.67 3.54-3.9898 0.04608-0.17578-2.6699z" filter="url(#filter883)" opacity=".5"/>
 <path d="m5.2852 0.85938c-1.464 3.382-3.0032 6.7329-4.5352 10.086 0.617-0.138 1.2512-0.07083 1.7812-0.04883 0.287-1.126 0.76702-2.3211 1.166-3.3301a52.504 52.504 0 0 1 3.3379-0.00195c0.407 1.105 0.8 2.2147 1.125 3.3457a14.378 14.378 0 0 1 2.0332-0.04492c-4.405 3.7445-0.77487 7.2806 1.8945 3.7383 0.136 0.606 0.59973 1.2075 0.92773 1.1465 0.606-0.16 0.63433-0.3543 0.61133-0.6543-0.085-0.431-0.52076-0.5492-0.75976-1.2832 1.072-1.305 1.7314-2.8071 2.1074-4.2051 5.68 0.198 2.7745 6.0749-0.85352 6.8359h-0.0039l-2e-3 2e-3c-0.38 0.34602-0.80875 0.67389-0.84375 0.71289 6.174-0.655 8.4529-8.5032 1.7949-8.3262-8e-3 -0.82602-0.5948-0.98977-0.9668-0.75977-0.404 0.282-0.03069 0.4327-0.05469 0.8457-0.559 0.13-1.1 0.32355-1.623 0.56055 0.04-0.655 0.09588-1.3414 0.17188-2.0664 1.348-0.36 2.7557-0.76909 3.9707-1.2461 2e-3 -0.302-0.2927-0.50227-0.4707-0.57227-0.662-0.275-1.6746 0.34499-3.3906 0.83398 0.022-0.636 0.285-1.2046 0.5-1.7266-0.218-0.656-0.8882-0.665-1.4082-0.75-0.077 0.951-0.08756 1.8866-0.10156 2.7266-0.94292 0.18044-1.6589 0.21803-2.4805 0.16406-0.87765-2.0974-1.7189-4.1569-2.4453-5.9824h-1.4824zm0.14062 2.6367c0.425 1.004 0.8288 2.0162 1.2168 3.0352-0.84 0.021-1.6786 0.016-2.5176 0zm4.0703 4.0078c0.5765 0.11269 1.4885 0.10117 2.1367 0.064453-0.04 0.828-0.08109 1.6053-0.12109 2.3203-0.28494 0.18077-0.52514 0.36116-0.76953 0.54297-0.42983-0.97299-0.83314-1.9492-1.2461-2.9277zm4.3848 2.3125a10.673 10.673 0 0 1-1.3613 2.7793 22.604 22.604 0 0 1-0.10547-2.1504c0.49-0.31 0.9798-0.49691 1.4668-0.62891zm-2.293 1.1562c8e-3 1.215 0.05778 2.1379 0.17578 2.6699-2.67 3.54-3.9898 0.04607-0.17578-2.6699z" fill="#fff"/>
 <path d="m5.2852 1.8594c-1.464 3.382-3.0032 6.7329-4.5352 10.086 0.617-0.138 1.2512-0.07083 1.7812-0.04883 0.287-1.126 0.76702-2.3211 1.166-3.3301a52.504 52.504 0 0 1 3.3379-0.00195c0.407 1.105 0.8 2.2147 1.125 3.3457a14.378 14.378 0 0 1 2.0332-0.04492c-4.405 3.7445-0.77487 7.2806 1.8945 3.7383 0.136 0.606 0.59973 1.2075 0.92773 1.1465 0.606-0.16 0.63433-0.3543 0.61133-0.6543-0.085-0.431-0.52076-0.5492-0.75976-1.2832 1.072-1.305 1.7314-2.8071 2.1074-4.2051 5.68 0.198 2.7745 6.0749-0.85352 6.8359h-0.0039l-2e-3 2e-3c-0.38 0.346-0.80875 0.67389-0.84375 0.71289 6.174-0.655 8.4529-8.5032 1.7949-8.3262-8e-3 -0.826-0.5948-0.98977-0.9668-0.75977-0.404 0.282-0.03069 0.4327-0.05469 0.8457-0.559 0.13-1.1 0.32355-1.623 0.56055 0.04-0.655 0.09588-1.3414 0.17188-2.0664 1.348-0.36 2.7557-0.76909 3.9707-1.2461 2e-3 -0.302-0.2927-0.50227-0.4707-0.57227-0.662-0.275-1.6746 0.34498-3.3906 0.83398 0.022-0.636 0.285-1.2046 0.5-1.7266-0.218-0.656-0.8882-0.665-1.4082-0.75-0.077 0.951-0.08756 1.8866-0.10156 2.7266-0.94292 0.18044-1.6589 0.21803-2.4805 0.16406-0.87765-2.0974-1.7189-4.1569-2.4453-5.9824h-1.4824zm0.14062 2.6367c0.425 1.004 0.8288 2.0162 1.2168 3.0352-0.84 0.021-1.6786 0.016-2.5176 0zm4.0703 4.0078c0.5765 0.11269 1.4885 0.10117 2.1367 0.064453-0.04 0.828-0.08109 1.6053-0.12109 2.3203-0.28494 0.18077-0.52514 0.36116-0.76953 0.54297-0.42983-0.97299-0.83314-1.9492-1.2461-2.9277zm4.3848 2.3125a10.673 10.673 0 0 1-1.3613 2.7793 22.604 22.604 0 0 1-0.10547-2.1504c0.49-0.31 0.9798-0.49691 1.4668-0.62891zm-2.293 1.1562c8e-3 1.215 0.05778 2.1379 0.17578 2.6699-2.67 3.54-3.9898 0.04608-0.17578-2.6699z" fill="#722"/>
</svg>
