<svg width="32" height="34" version="1.1" viewBox="0 0 8.4667 8.9959" xmlns="http://www.w3.org/2000/svg">
 <defs>
  <filter id="filter1572" x="-.068736" y="-.4721" width="1.1375" height="1.9442" color-interpolation-filters="sRGB">
   <feGaussianBlur stdDeviation="0.21456901"/>
  </filter>
  <filter id="filter1576" x="-.068932" y="-.46303" width="1.1379" height="1.9261" color-interpolation-filters="sRGB">
   <feGaussianBlur stdDeviation="0.20501663"/>
  </filter>
  <filter id="filter1580" x="-.069214" y="-.45071" width="1.1384" height="1.9014" color-interpolation-filters="sRGB">
   <feGaussianBlur stdDeviation="0.21968577"/>
  </filter>
 </defs>
 <g fill-rule="evenodd">
  <path d="m0.42343 1.5574c2.2789-0.79993 6.0102-1.0075 7.0567-0.44892 1.0683 0.57018 0.14467 0.6306-0.01372 0.78866-0.15477 0.15444-6.6945 0.040721-7.043-0.33975z"/>
  <path d="m0.42343 2.0866c2.2789-0.79993 6.0102-1.0075 7.0567-0.44892 1.0683 0.57018 0.14467 0.6306-0.01372 0.78866-0.15477 0.15444-6.6945 0.040721-7.043-0.33975z" filter="url(#filter1580)"/>
  <path d="m0.70417 4.0129c2.1884-0.61117 6.6012-1.0823 6.9892-0.28165 0.38791 0.80068-0.49955 0.62541-0.89824 0.61595-1.9294-0.045801-4.8178 0.21517-6.0909-0.3343z"/>
  <path d="m0.70417 4.5421c2.1884-0.61117 6.6012-1.0823 6.9892-0.28165 0.38791 0.80068-0.49955 0.62541-0.89824 0.61595-1.9294-0.045801-4.8178 0.21517-6.0909-0.3343z" filter="url(#filter1576)"/>
  <path d="m0.51016 6.9791s6.5322-1.0714 7.221-0.42765-0.46526 0.88678-0.56813 0.88488c-5.0356-0.092904-6.2569-0.21525-6.6529-0.45723z"/>
  <path d="m0.51016 7.5082s6.5322-1.0714 7.221-0.42765-0.46526 0.88678-0.56813 0.88488c-5.0356-0.092904-6.2569-0.21525-6.6529-0.45723z" filter="url(#filter1572)"/>
  <g fill-opacity=".50196">
   <path d="m0.42344 0.89592c2.3494-0.50657 6.203-0.25372 7.0567-0.44892 1.1805-0.26991 0.14467 0.6306-0.01372 0.78866-0.15477 0.15444-6.6945 0.040721-7.043-0.33975z"/>
   <path d="m0.70418 3.2548c2.2168-0.39456 6.6681-0.68726 6.9892-0.28165 0.55223 0.69757-0.49955 0.62541-0.89824 0.61595-1.9294-0.045801-4.8178 0.21517-6.0909-0.3343z"/>
   <path d="m0.51017 6.3176c0.022116 0.0029905 6.779-0.8388 7.221-0.42765 0.69036 0.64209-0.46526 0.88678-0.56813 0.88488-5.0356-0.092904-6.2569-0.21525-6.6529-0.45723z"/>
  </g>
  <g fill="#fff">
   <path d="m0.42344 1.0282c2.3369-0.48117 6.1381-0.2733 7.0567-0.44892 1.1894-0.22738 0.14467 0.6306-0.01372 0.78866-0.15477 0.15444-6.6945 0.040721-7.043-0.33975z"/>
   <path d="m0.70418 3.3456c2.2575-0.40656 6.7658-0.58762 6.9892-0.28165 0.52461 0.71857-0.49955 0.62541-0.89824 0.61595-1.9294-0.045801-4.8178 0.21517-6.0909-0.3343z"/>
   <path d="m0.51017 6.4499c0.0090892 0 6.6992-0.85717 7.221-0.42765 0.72791 0.59919-0.46526 0.88678-0.56813 0.88488-5.0356-0.092904-6.2569-0.21525-6.6529-0.45723z"/>
  </g>
  <g fill="#ccc">
   <path d="m0.42343 1.3088c2.3317-0.50211 6.1485-0.19793 7.0567-0.44892 1.1672-0.32256 0.14467 0.6306-0.01372 0.78866-0.15477 0.15444-6.6945 0.040721-7.043-0.33975z"/>
   <path d="m0.70417 3.5808c2.2334-0.36249 6.6987-0.54394 6.9892-0.28165 0.66028 0.59631-0.49955 0.62541-0.89824 0.61595-1.9294-0.045801-4.8178 0.21517-6.0909-0.3343z"/>
   <path d="m0.45729 6.7145c3.4313e-4 0.00844 6.5994-0.7198 7.2739-0.42765 0.86514 0.3747-0.46526 0.88678-0.56813 0.88488-5.0356-0.092904-6.3098-0.21525-6.7058-0.45723z"/>
  </g>
 </g>
</svg>
