<svg width="20" height="22" version="1.1" xmlns="http://www.w3.org/2000/svg">
 <defs>
  <filter id="filter871" x="-.11958" y="-.098465" width="1.2392" height="1.1969" color-interpolation-filters="sRGB">
   <feGaussianBlur stdDeviation="0.69754544"/>
  </filter>
 </defs>
 <path d="m4 1v16h4v-2h-2v-12h3.9941v4h4.0059v1h2v-1.9902l-5-5.0098zm9.3398 8a0.641 0.641 0 0 0-0.64453 0.64258v0.41797a3.536 3.536 0 0 0-1.0625 0.44141l-0.29102-0.29102a0.64 0.64 0 0 0-0.91016 0l-0.22656 0.22656a0.641 0.641 0 0 0 0 0.91016l0.29297 0.29297a3.536 3.536 0 0 0-0.4375 1.0547h-0.41797a0.641 0.641 0 0 0-0.64258 0.64453v0.32226c0 0.356 0.28558 0.64258 0.64258 0.64258h0.41797a3.536 3.536 0 0 0 0.44141 1.0645l-0.29688 0.29688a0.641 0.641 0 0 0 0 0.91016l0.22656 0.22656a0.642 0.642 0 0 0 0.91016 0l0.29883-0.29883a3.536 3.536 0 0 0 1.0547 0.43555v0.41797c0 0.357 0.28853 0.64453 0.64453 0.64453h0.32031a0.641 0.641 0 0 0 0.64453-0.64453v-0.41797a3.536 3.536 0 0 0 1.0547-0.43555l0.30078 0.29883a0.642 0.642 0 0 0 0.9082 0l0.22852-0.22852a0.641 0.641 0 0 0 0-0.9082l-0.29883-0.29883a3.536 3.536 0 0 0 0.44141-1.0625h0.41797a0.641 0.641 0 0 0 0.64258-0.64453v-0.32226a0.641 0.641 0 0 0-0.64258-0.64258h-0.41797a3.536 3.536 0 0 0-0.43555-1.0566l0.29297-0.29297a0.641 0.641 0 0 0 0-0.91016l-0.22852-0.22656a0.642 0.642 0 0 0-0.91016 0l-0.29102 0.29297a3.536 3.536 0 0 0-1.0625-0.44141v-0.41797a0.641 0.641 0 0 0-0.64453-0.64258zm0.11133 2.5a2 2 0 0 1 0.04883 0 2 2 0 0 1 2 2 2 2 0 0 1-2 2 2 2 0 0 1-2-2 2 2 0 0 1 1.9512-2z" fill="#fff"/>
 <path d="m4 3v16h4v-2h-2v-12h3.9941v4h4.0059v1h2v-1.9902l-5-5.0098zm9.3398 8a0.641 0.641 0 0 0-0.64453 0.64258v0.41797a3.536 3.536 0 0 0-1.0625 0.44141l-0.29102-0.29102a0.64 0.64 0 0 0-0.91016 0l-0.22656 0.22656a0.641 0.641 0 0 0 0 0.91016l0.29297 0.29297a3.536 3.536 0 0 0-0.4375 1.0547h-0.41797a0.641 0.641 0 0 0-0.64258 0.64453v0.32226c0 0.356 0.28558 0.64258 0.64258 0.64258h0.41797a3.536 3.536 0 0 0 0.44141 1.0645l-0.29688 0.29688a0.641 0.641 0 0 0 0 0.91016l0.22656 0.22656a0.642 0.642 0 0 0 0.91016 0l0.29883-0.29883a3.536 3.536 0 0 0 1.0547 0.43555v0.41797c0 0.357 0.28853 0.64453 0.64453 0.64453h0.32031a0.641 0.641 0 0 0 0.64453-0.64453v-0.41797a3.536 3.536 0 0 0 1.0547-0.43555l0.30078 0.29883a0.642 0.642 0 0 0 0.9082 0l0.22852-0.22852a0.641 0.641 0 0 0 0-0.9082l-0.29883-0.29883a3.536 3.536 0 0 0 0.44141-1.0625h0.41797a0.641 0.641 0 0 0 0.64258-0.64453v-0.32226a0.641 0.641 0 0 0-0.64258-0.64258h-0.41797a3.536 3.536 0 0 0-0.43555-1.0566l0.29297-0.29297a0.641 0.641 0 0 0 0-0.91016l-0.22852-0.22656a0.642 0.642 0 0 0-0.91016 0l-0.29102 0.29297a3.536 3.536 0 0 0-1.0625-0.44141v-0.41797a0.641 0.641 0 0 0-0.64453-0.64258zm0.11133 2.5a2 2 0 0 1 0.04883 0 2 2 0 0 1 2 2 2 2 0 0 1-2 2 2 2 0 0 1-2-2 2 2 0 0 1 1.9512-2z" filter="url(#filter871)" opacity=".5"/>
 <path d="m4 2v16h4v-2h-2v-12h3.9941v4h4.0059v1h2v-1.9902l-5-5.0098zm9.3398 8a0.641 0.641 0 0 0-0.64453 0.64258v0.41797a3.536 3.536 0 0 0-1.0625 0.44141l-0.29102-0.29102a0.64 0.64 0 0 0-0.91016 0l-0.22656 0.22656a0.641 0.641 0 0 0 0 0.91016l0.29297 0.29297a3.536 3.536 0 0 0-0.4375 1.0547h-0.41797a0.641 0.641 0 0 0-0.64258 0.64453v0.32226c0 0.356 0.28558 0.64258 0.64258 0.64258h0.41797a3.536 3.536 0 0 0 0.44141 1.0645l-0.29688 0.29688a0.641 0.641 0 0 0 0 0.91016l0.22656 0.22656a0.642 0.642 0 0 0 0.91016 0l0.29883-0.29883a3.536 3.536 0 0 0 1.0547 0.43555v0.41797c0 0.357 0.28853 0.64453 0.64453 0.64453h0.32031a0.641 0.641 0 0 0 0.64453-0.64453v-0.41797a3.536 3.536 0 0 0 1.0547-0.43555l0.30078 0.29883a0.642 0.642 0 0 0 0.9082 0l0.22852-0.22852a0.641 0.641 0 0 0 0-0.9082l-0.29883-0.29883a3.536 3.536 0 0 0 0.44141-1.0625h0.41797a0.641 0.641 0 0 0 0.64258-0.64453v-0.32226a0.641 0.641 0 0 0-0.64258-0.64258h-0.41797a3.536 3.536 0 0 0-0.43555-1.0566l0.29297-0.29297a0.641 0.641 0 0 0 0-0.91016l-0.22852-0.22656a0.642 0.642 0 0 0-0.91016 0l-0.29102 0.29297a3.536 3.536 0 0 0-1.0625-0.44141v-0.41797a0.641 0.641 0 0 0-0.64453-0.64258h-0.32031zm0.11133 2.5a2 2 0 0 1 0.04883 0 2 2 0 0 1 2 2 2 2 0 0 1-2 2 2 2 0 0 1-2-2 2 2 0 0 1 1.9512-2z" fill="#722"/>
</svg>
