<svg width="20" height="22" version="1.1" xmlns="http://www.w3.org/2000/svg">
 <defs>
  <filter id="filter871" x="-.10803" y="-.10797" width="1.2161" height="1.2159" color-interpolation-filters="sRGB">
   <feGaussianBlur stdDeviation="0.71244067"/>
  </filter>
 </defs>
 <path d="m12.879 3.1641-9.4648 9.4727 4.9492 4.9492 9.4648-9.4707zm0 2.8301 2.1211 2.1211-6.6367 6.6426-2.1211-2.1211zm2.7773 5.0059-1 1h0.34375v5h-0.5v1h2.5v-7zm-2.6562 2.6562-2 2v2.3438h2.5v-1h-0.5zm-11 0.39453v4.9492h4.9492z" filter="url(#filter871)" opacity=".5"/>
 <path d="m12.93 1.1641-9.4648 9.4727 4.9492 4.9492 9.4648-9.4707zm0 2.8301 2.1211 2.1211-6.6367 6.6426-2.1211-2.1211zm2.7773 5.0059-1 1h0.34375v5h-0.5v1h2.5v-7zm-2.6562 2.6563-2 2v2.3438h2.5v-1h-0.5zm-11 0.39453v4.9492h4.9492z" fill="#fff"/>
 <path d="m12.879 2.1641-9.4648 9.4727 4.9492 4.9492 9.4648-9.4707zm0 2.8301 2.1211 2.1211-6.6367 6.6426-2.1211-2.1211zm2.7773 5.0059-1 1h0.34375v5h-0.5v1h2.5v-7h-1.3438zm-2.6562 2.6562-2 2v2.3438h2.5v-1h-0.5zm-11 0.39453v4.9492h4.9492z" fill="#16b"/>
</svg>
