<svg width="20" height="22" version="1.1" xmlns="http://www.w3.org/2000/svg">
 <defs>
  <filter id="filter867" x="-.10802" y="-.10798" width="1.216" height="1.216" color-interpolation-filters="sRGB">
   <feGaussianBlur stdDeviation="0.71244"/>
  </filter>
 </defs>
 <path d="m12.879 3.165-9.465 9.471 4.95 4.95 9.465-9.471zm0 2.829 2.121 2.121-6.636 6.643-2.121-2.122zm-5.929 13.006h-4.95v-4.95z" filter="url(#filter867)" opacity=".5"/>
 <path d="m12.879 1.165-9.465 9.471 4.95 4.95 9.465-9.471zm0 2.829 2.121 2.121-6.636 6.643-2.121-2.122zm-5.929 13.006h-4.95v-4.95z" fill="#fff"/>
 <path d="m12.879 2.165-9.465 9.471 4.95 4.95 9.465-9.471zm0 2.829 2.121 2.121-6.636 6.643-2.121-2.122zm-5.929 13.006h-4.95v-4.95z" fill="#16b"/>
</svg>
