<svg width="20" height="22" version="1.1" xmlns="http://www.w3.org/2000/svg">
 <defs>
  <filter id="filter877" x="-.10568" y="-.11042" width="1.2114" height="1.2208" color-interpolation-filters="sRGB">
   <feGaussianBlur stdDeviation="0.7302825"/>
  </filter>
 </defs>
 <path d="m10.041 2.125-2.634 5.118-5.654 0.95 4.025 4.102-0.846 5.703 5.123-2.587 5.13 2.567-0.862-5.689 4.014-4.113-5.652-0.936z" filter="url(#filter877)" opacity=".5"/>
 <path d="m10.041 0-2.634 5.118-5.654 0.95 4.025 4.102-0.846 5.703 5.123-2.587 5.13 2.567-0.862-5.689 4.014-4.113-5.652-0.936z" fill="#fff"/>
 <path d="m10.041 1.125-2.634 5.118-5.654 0.95 4.025 4.102-0.846 5.703 5.123-2.587 5.13 2.567-0.862-5.689 4.014-4.113-5.652-0.936z" fill="#722"/>
</svg>
