<svg width="20" height="22" version="1.1" xmlns="http://www.w3.org/2000/svg">
 <defs>
  <filter id="filter867" x="-.10568" y="-.11042" width="1.2114" height="1.2208" color-interpolation-filters="sRGB">
   <feGaussianBlur stdDeviation="0.7302825"/>
  </filter>
 </defs>
 <path d="m10.041 2.125-2.634 5.118-5.654 0.95 4.025 4.102-0.846 5.703 5.123-2.587 5.13 2.567-0.862-5.689 4.014-4.113-5.652-0.936zm3e-3 4.355 1.332 2.578 2.847 0.47-2.022 2.071 0.435 2.863-2.587-1.294-2.578 1.302 0.426-2.871-2.023-2.064 2.844-0.477z" filter="url(#filter867)" opacity=".5"/>
 <path d="m10.041 0.125-2.634 5.118-5.654 0.95 4.025 4.102-0.846 5.703 5.123-2.587 5.13 2.567-0.862-5.689 4.014-4.113-5.652-0.936zm3e-3 4.355 1.332 2.578 2.847 0.47-2.022 2.071 0.435 2.863-2.587-1.294-2.578 1.302 0.426-2.871-2.023-2.064 2.844-0.477z" fill="#fff"/>
 <path d="m10.041 1.125-2.634 5.118-5.654 0.95 4.025 4.102-0.846 5.703 5.123-2.587 5.13 2.567-0.862-5.689 4.014-4.113-5.652-0.936zm3e-3 4.355 1.332 2.578 2.847 0.47-2.022 2.071 0.435 2.863-2.587-1.294-2.578 1.302 0.426-2.871-2.023-2.064 2.844-0.477z" fill="#722"/>
</svg>
