<svg width="20" height="22" version="1.1" xmlns="http://www.w3.org/2000/svg">
 <defs>
  <filter id="filter872" x="-.10561" y="-.1105" width="1.2112" height="1.221" color-interpolation-filters="sRGB">
   <feGaussianBlur stdDeviation="0.74922729"/>
  </filter>
 </defs>
 <path d="m11.973 3.7266c-3.543 0-6.418 2.0791-6.5156 4.668-2.3093 0.5989-3.9871 2.2859-3.9863 4.2969 0 1.8689 1.4415 3.4704 3.498 4.168 0.37766 1.3898-0.2294 2.3093-1.0195 3.1406 2.7266-0.61101 3.1622-1.691 3.5391-2.7832 2.5991-0.07807 4.7583-1.4869 5.3848-3.3906 0.38148 0.89623 1.0544 1.7324 3.3262 2.2422-0.8414-0.88527-1.4892-1.8634-0.94531-3.4121 1.9315-0.83434 3.2429-2.3617 3.2422-4.1289 0-2.65-2.9204-4.8008-6.5234-4.8008zm-0.01563 2.2637c2.433 0 4.4072 1.1275 4.4082 2.5195 0 1.2591-1.6167 2.2942-3.7246 2.4824-0.81713-1.5874-2.7486-2.7115-5.0312-2.8184 0.29049-1.2315 2.1167-2.1836 4.3477-2.1836zm-4.7109 4.4023c2.01 0 3.6397 1.0346 3.6387 2.3086s-1.6297 2.3056-3.6387 2.3066c-2.01 0-3.6406-1.0326-3.6406-2.3066-1e-3 -1.275 1.6296-2.3096 3.6406-2.3086z" filter="url(#filter872)" opacity=".5"/>
 <path d="m11.973 1.727c-3.543 0-6.418 2.0791-6.5156 4.668-2.3093 0.5989-3.9871 2.2859-3.9863 4.2969 0 1.8689 1.4415 3.4704 3.498 4.168 0.37766 1.3898-0.2294 2.3093-1.0195 3.1406 2.7266-0.61101 3.1622-1.691 3.5391-2.7832 2.5991-0.07807 4.7583-1.4869 5.3848-3.3906 0.38148 0.89623 1.0544 1.7324 3.3262 2.2422-0.8414-0.88527-1.4892-1.8634-0.94531-3.4121 1.9315-0.83434 3.2429-2.3617 3.2422-4.1289 0-2.65-2.9204-4.8008-6.5234-4.8008zm-0.01563 2.2637c2.433 0 4.4072 1.1275 4.4082 2.5195 0 1.2591-1.6167 2.2941-3.7246 2.4824-0.81713-1.5874-2.7486-2.7115-5.0312-2.8184 0.29049-1.2315 2.1167-2.1836 4.3477-2.1836zm-4.7109 4.4023c2.01 0 3.6397 1.0346 3.6387 2.3086s-1.6297 2.3056-3.6387 2.3066c-2.01 0-3.6406-1.0326-3.6406-2.3066-1e-3 -1.275 1.6296-2.3096 3.6406-2.3086z" fill="#fff"/>
 <path d="m11.973 2.7266c-3.543 0-6.418 2.0791-6.5156 4.668-2.3093 0.5989-3.9871 2.2859-3.9863 4.2969 0 1.8689 1.4415 3.4704 3.498 4.168 0.37766 1.3898-0.2294 2.3093-1.0195 3.1406 2.7266-0.61101 3.1622-1.691 3.5391-2.7832 2.5991-0.07807 4.7583-1.4869 5.3848-3.3906 0.38148 0.89623 1.0544 1.7324 3.3262 2.2422-0.8414-0.88527-1.4892-1.8634-0.94531-3.4121 1.9315-0.83434 3.2429-2.3617 3.2422-4.1289 0-2.65-2.9204-4.8008-6.5234-4.8008zm-0.01563 2.2637c2.433 0 4.4072 1.1275 4.4082 2.5195 0 1.2591-1.6167 2.2941-3.7246 2.4824-0.81712-1.5874-2.7486-2.7115-5.0312-2.8184 0.29049-1.2315 2.1167-2.1836 4.3477-2.1836zm-4.7109 4.4023c2.01 0 3.6397 1.0346 3.6387 2.3086s-1.6297 2.3056-3.6387 2.3066c-2.01 0-3.6406-1.0326-3.6406-2.3066-1e-3 -1.275 1.6296-2.3096 3.6406-2.3086z"/>
</svg>
