<svg width="32" height="34" version="1.1" viewBox="0 0 8.4667 8.9959" xmlns="http://www.w3.org/2000/svg">
 <defs>
  <filter id="filter1078" x="-.19997" y="-.11622" width="1.3999" height="1.2324" color-interpolation-filters="sRGB">
   <feGaussianBlur stdDeviation="0.11658634"/>
  </filter>
  <filter id="filter1152" x="-.16198" y="-.2617" width="1.324" height="1.5234" color-interpolation-filters="sRGB">
   <feGaussianBlur stdDeviation="0.17607862"/>
  </filter>
 </defs>
 <g transform="matrix(-1,0,0,1,7.8004,0)">
  <path transform="matrix(-2.2611 0 0 1.7149 9.4012 .046921)" d="m1.794 3.2228c-0.0099-2.964e-4 -0.02008-2.672e-4 -0.03052 1.527e-4 -0.43458 0.017315-0.64651 0.52934-0.63463 1.1414 0.01171 0.60318 0.47057 0.26078 0.70434-0.02953 0.2568-0.31891 0.27361 0.50214 0.97031 0.50256 0.51699 3.175e-4 0.86724-0.78343 0.93378-1.1239-0.45017 0.54119-0.91572-0.40465-1.2478 0.32405-0.32857-0.45821-0.38847-0.80551-0.69542-0.81467z" filter="url(#filter1152)"/>
  <path transform="matrix(-1.7149 0 0 1.7149 8.129 -.061821)" d="m2.7969 0.86858c-0.33104-0.00108-0.63894 0.25582-0.73633 0.59465-0.17519 0.60951 0.03887 1.4499 0.59549 1.7786 0.34012 0.20083 0.69044-0.53271 0.74023-0.7912 0.01847-0.095865-0.0315-0.14304-0.10062-0.17486a0.44849 0.56166 0 0 1-0.43891 0.44606 0.44849 0.56166 0 0 1-0.44848-0.56167 0.44849 0.56166 0 0 1 0.44848-0.56167 0.44849 0.56166 0 0 1 0.28293 0.12591c0.11692-0.28223 0.23785-0.58739 0.04526-0.72554-0.1254-0.089954-0.2585-0.12983-0.38804-0.13025z" filter="url(#filter1078)"/>
  <path d="m5.3449 4.8874c0.022385-5.082e-4 0.045409-4.582e-4 0.069001 2.618e-4 0.98261 0.029694 1.4618 0.90778 1.4349 1.9574-0.026473 1.0344-1.064 0.44722-1.5926-0.050642-0.58064-0.5469-0.61865 0.86113-2.1939 0.86185-1.1689 5.445e-4 -1.775-1.0555-1.9254-1.6395 0.68191 1.2143 1.8846 1.0621 2.6355 0.26775 0.74292-0.78579 0.87835-1.3814 1.5724-1.3971z" stroke-width="1.2757"/>
  <path d="m3.3326 0.74138c0.56771-0.0018573 1.0957 0.43871 1.2627 1.0198 0.30044 1.0453-0.066654 2.4865-1.0212 3.0502-0.58328 0.34441-1.184-0.91355-1.2694-1.3568-0.031669-0.1644-0.030163-0.28156 0-0.45373 0.70873-0.71074 0.91817-1.5852 0.17689-2.0168 0.23286-0.21916 0.62885-0.24182 0.85101-0.24254z" stroke-width="1.111"/>
 </g>
 <path d="m2.4556 4.1671c-0.022384-5.083e-4 -0.045409-4.584e-4 -0.069001 2.618e-4 -0.98261 0.029694-1.4618 0.90778-1.4349 1.9574 0.026473 1.0344 1.064 0.44722 1.5926-0.050642 0.58064-0.5469 0.61865 0.86113 2.1939 0.86185 1.1689 5.444e-4 1.775-1.0555 1.9254-1.6395-0.68191 1.2143-1.8846 1.0621-2.6355 0.26775-0.74292-0.78579-0.87835-1.3814-1.5724-1.3971z" fill="#fff" stroke-width="1.2757"/>
 <path d="m4.4679 0.02106c-0.56771-0.0018573-1.0957 0.43871-1.2627 1.0198-0.30044 1.0453 0.066654 2.4865 1.0212 3.0502 0.58328 0.34441 1.184-0.91355 1.2694-1.3568 0.031669-0.1644 0.030163-0.28156 0-0.45373-0.70873-0.71074-0.91817-1.5852-0.17689-2.0168-0.23286-0.21916-0.62885-0.24182-0.85101-0.24254z" fill="#fff" stroke-width="1.111"/>
 <path d="m2.4556 4.5934c-0.022384-5.072e-4 -0.045409-4.582e-4 -0.069001 2.618e-4 -0.98261 0.029694-1.4618 0.90778-1.4349 1.9574 0.026473 1.0344 1.064 0.44722 1.5926-0.050642 0.58064-0.5469 0.61865 0.86113 2.1939 0.86185 1.1689 5.234e-4 1.775-1.0555 1.9254-1.6395-0.68191 1.2143-1.8846 1.0621-2.6355 0.26775-0.74292-0.78579-0.87835-1.3814-1.5724-1.3971z" fill="#ddd" stroke-width="1.2757"/>
 <path d="m4.4679 0.44742c-0.56771-0.001857-1.0957 0.43871-1.2627 1.0198-0.30044 1.0453 0.066654 2.4865 1.0212 3.0502 0.58328 0.34441 1.184-0.91355 1.2694-1.3568 0.031669-0.1644 0.030163-0.28156 0-0.45373-0.70873-0.71074-0.91817-1.5852-0.17689-2.0168-0.23286-0.21916-0.62885-0.24182-0.85101-0.24254z" fill="#ddd" stroke-width="1.111"/>
</svg>
