<svg width="20" height="20" viewBox="0 0 5.2917 5.2917" xmlns="http://www.w3.org/2000/svg">
 <defs>
  <filter id="filter1698" x="-.31235" y="-.19885" width="1.6247" height="1.3977" color-interpolation-filters="sRGB">
   <feGaussianBlur stdDeviation="0.32883262"/>
  </filter>
 </defs>
 <g stroke-width=".28399">
  <path d="m2.7969 0.86858c-0.33104-0.00108-0.63894 0.25582-0.73633 0.59465-0.17519 0.60951 0.03887 1.4499 0.59549 1.7786 0.34012 0.20083 0.69044-0.53271 0.74023-0.7912 0.01847-0.095865-0.0315-0.14304-0.10062-0.17486a0.44849 0.56166 0 0 1-0.43891 0.44606 0.44849 0.56166 0 0 1-0.44848-0.56167 0.44849 0.56166 0 0 1 0.44848-0.56167 0.44849 0.56166 0 0 1 0.28293 0.12591c0.11692-0.28223 0.23785-0.58739 0.04526-0.72554-0.1254-0.089954-0.2585-0.12983-0.38804-0.13025zm-1.0029 2.3542c-0.0099-2.964e-4 -0.02008-2.672e-4 -0.03052 1.527e-4 -0.43458 0.017315-0.64651 0.52934-0.63463 1.1414 0.01171 0.60318 0.47057 0.26078 0.70434-0.02953 0.2568-0.31891 0.27361 0.50214 0.97031 0.50256 0.51699 3.175e-4 0.78501-0.61551 0.85155-0.95601-0.30159 0.70806-0.83348 0.61933-1.1656 0.15613-0.32857-0.45821-0.38847-0.80551-0.69542-0.81467z" filter="url(#filter1698)"/>
  <path d="m2.7969 0.60405c-0.33104-0.001083-0.63894 0.25582-0.73633 0.59465-0.17519 0.60951 0.038867 1.4499 0.59549 1.7786 0.34012 0.20083 0.69044-0.53271 0.74023-0.7912 0.018467-0.095865 0.017589-0.16418 0-0.26458-0.41328-0.41445-0.5354-0.92438-0.10315-1.176-0.13578-0.1278-0.3667-0.14101-0.49624-0.14143zm-1.0029 2.3542c-0.0099-2.963e-4 -0.020083-2.672e-4 -0.030517 1.527e-4 -0.43458 0.017315-0.64651 0.52934-0.63463 1.1414 0.011708 0.60318 0.47057 0.26078 0.70434-0.02953 0.2568-0.31891 0.27361 0.50214 0.97031 0.50256 0.51699 3.175e-4 0.78501-0.61551 0.85155-0.95601-0.30159 0.70806-0.83349 0.61933-1.1656 0.15613-0.32857-0.45821-0.38847-0.80551-0.69542-0.81467z"/>
  <path d="m2.7969 3.4114e-6c-0.33104-0.001083-0.63894 0.25582-0.73633 0.59465-0.17519 0.60951 0.038867 1.4499 0.59549 1.7786 0.34012 0.20083 0.69044-0.53271 0.74023-0.7912 0.018467-0.095865 0.017589-0.16418 0-0.26458-0.41328-0.41445-0.5354-0.92438-0.10315-1.176-0.13578-0.1278-0.3667-0.14101-0.49624-0.14143zm-1.0029 2.3542c-0.0099-2.964e-4 -0.020083-2.673e-4 -0.030517 1.526e-4 -0.43458 0.017315-0.64651 0.52934-0.63463 1.1414 0.011708 0.60318 0.47057 0.26078 0.70434-0.02953 0.2568-0.31891 0.27361 0.50214 0.97031 0.50256 0.51699 3.175e-4 0.78501-0.61551 0.85155-0.95601-0.30159 0.70806-0.83349 0.61933-1.1656 0.15613-0.32857-0.45821-0.38847-0.80551-0.69542-0.81467z" fill="#fff"/>
  <path d="m2.7969 0.33949c-0.33104-0.001083-0.63894 0.25582-0.73633 0.59465-0.17519 0.60951 0.038867 1.4499 0.59549 1.7786 0.34012 0.20083 0.69044-0.53271 0.74023-0.7912 0.018467-0.095865 0.017589-0.16418 0-0.26458-0.41328-0.41445-0.5354-0.92438-0.10315-1.176-0.13578-0.1278-0.3667-0.14101-0.49624-0.14143zm-1.0029 2.3542c-0.0099-2.957e-4 -0.020083-2.672e-4 -0.030517 1.527e-4 -0.43458 0.017315-0.64651 0.52934-0.63463 1.1414 0.011708 0.60318 0.47057 0.26078 0.70434-0.02953 0.2568-0.31891 0.27361 0.50214 0.97031 0.50256 0.51699 3.052e-4 0.78501-0.61551 0.85155-0.95601-0.30159 0.70806-0.83349 0.61933-1.1656 0.15613-0.32857-0.45821-0.38847-0.80551-0.69542-0.81467z" fill="#ddd"/>
 </g>
</svg>
