<?xml version="1.0" encoding="UTF-8"?>
<svg width="20" height="22" version="1.1" xmlns="http://www.w3.org/2000/svg" xmlns:cc="http://creativecommons.org/ns#" xmlns:dc="http://purl.org/dc/elements/1.1/" xmlns:rdf="http://www.w3.org/1999/02/22-rdf-syntax-ns#">
 <metadata>
  <rdf:RDF>
   <cc:Work rdf:about="">
    <dc:format>image/svg+xml</dc:format>
    <dc:type rdf:resource="http://purl.org/dc/dcmitype/StillImage"/>
    <dc:title/>
   </cc:Work>
  </rdf:RDF>
 </metadata>
 <defs>
  <filter id="filter1055" x="-.11735" y="-.10003" width="1.2347" height="1.2001" color-interpolation-filters="sRGB">
   <feGaussianBlur stdDeviation="0.68915039"/>
  </filter>
 </defs>
 <g>
  <path d="m10 4a2.5 2.5 0 1 0 0 5 2.5 2.5 0 0 0 0-5z" fill="#fff"/>
  <g fill-rule="evenodd">
   <path d="m10 3c-2 0-3 2-3 4 0 3 2 5 3 5s3-2 3-5c0-2-1-4-3-4zm0 2c1 0 1.5 1.1115 1.5 2.2227 0 1.6667-1 2.7773-1.5 2.7773-0.5 0-1.5-1.1107-1.5-2.7773 0-1.1111 0.5-2.2227 1.5-2.2227zm-3.5918 6.1934c-3.0242 2.8066-3.3686 4.5436-3.4551 8.3418 1.3827-2.5352 4.9794-3.5209 7.0469-3.5352 2.0675 0.01422 5.6641 1 7.0469 3.5352-0.08648-3.7982-0.43084-5.5352-3.4551-8.3418-0.26181 0.54317-0.64838 1.0808-1.1836 1.6133 0.58579 0.4301 1.4256 1.2501 1.9941 2.416-1.1574-0.69332-2.4325-1.2227-4.4023-1.2227-1.9699 0-3.2449 0.52933-4.4023 1.2227 0.5685-1.166 1.4084-1.9859 1.9941-2.416-0.53521-0.53253-0.92178-1.0701-1.1836-1.6133z" filter="url(#filter1055)" opacity=".5" style="mix-blend-mode:normal"/>
   <path d="m10 1c-2 0-3 2-3 4 0 3 2 5 3 5s3-2 3-5c0-2-1-4-3-4zm0 2c1 0 1.5 1.1115 1.5 2.2227 0 1.6667-1 2.7773-1.5 2.7773-0.5 0-1.5-1.1107-1.5-2.7773 0-1.1111 0.5-2.2227 1.5-2.2227zm-3.5918 6.1934c-3.0242 2.8066-3.3686 4.5436-3.4551 8.3418 1.3827-2.5352 4.9794-3.5209 7.0469-3.5352 2.0675 0.01422 5.6641 1 7.0469 3.5352-0.086485-3.7982-0.43084-5.5352-3.4551-8.3418-0.26181 0.54317-0.64838 1.0808-1.1836 1.6133 0.58579 0.4301 1.4256 1.2501 1.9941 2.416-1.1574-0.69332-2.4325-1.2227-4.4023-1.2227-1.9699 0-3.2449 0.52933-4.4023 1.2227 0.5685-1.166 1.4084-1.9859 1.9941-2.416-0.53521-0.53253-0.92178-1.0701-1.1836-1.6133z" fill="#fff"/>
   <path d="m10 2c-2 0-3 2-3 4 0 3 2 5 3 5s3-2 3-5c0-2-1-4-3-4zm0 2c1 0 1.5 1.1115 1.5 2.2227 0 1.6667-1 2.7773-1.5 2.7773-0.5 0-1.5-1.1107-1.5-2.7773 0-1.1111 0.5-2.2227 1.5-2.2227zm-3.5918 6.1934c-3.0242 2.8066-3.3686 4.5436-3.4551 8.3418 1.3827-2.5352 4.9794-3.5209 7.0469-3.5352 2.0675 0.014223 5.6641 1 7.0469 3.5352-0.086485-3.7982-0.43084-5.5352-3.4551-8.3418-0.26181 0.54317-0.64838 1.0808-1.1836 1.6133 0.58579 0.4301 1.4256 1.2501 1.9941 2.416-1.1574-0.69332-2.4325-1.2227-4.4023-1.2227-1.9699 0-3.2449 0.52933-4.4023 1.2227 0.5685-1.166 1.4084-1.9859 1.9941-2.416-0.53521-0.53253-0.92178-1.0701-1.1836-1.6133z" fill="#722"/>
  </g>
 </g>
</svg>
